<svg width="167" height="56" viewBox="0 0 167 56" fill="none" xmlns="http://www.w3.org/2000/svg">
<g clip-path="url(#clip0)">
<path d="M10.7819 2.77332H16.0321L26.4858 29.5619H21.1183L18.9854 24.0378H7.89892L5.69569 29.5619H0.351685L10.7819 2.77332ZM13.4305 9.8692L9.79746 19.0683H17.0634L13.4305 9.8692Z" fill="black" stroke="white" stroke-width="2" stroke-miterlimit="10"/>
<path d="M30.4939 2.77332H36.6114C40.549 2.77332 43.5023 3.2587 45.4008 4.22946C47.3228 5.20024 48.8932 6.77196 50.1354 8.94463C51.3776 11.1173 52.0105 13.6597 52.0105 16.5489C52.0105 18.6061 51.6589 20.5014 50.9792 22.2349C50.2761 23.9685 49.3151 25.4015 48.0962 26.534C46.8774 27.6666 45.5414 28.4755 44.1117 28.8916C42.6819 29.3308 40.2209 29.5388 36.705 29.5388H30.4939V2.77332ZM35.6269 7.6965V24.5924H38.0176C40.3849 24.5924 42.0959 24.3152 43.1507 23.7835C44.2054 23.2519 45.0961 22.3505 45.7523 21.0793C46.4321 19.808 46.7602 18.2594 46.7602 16.4103C46.7602 13.5673 45.9634 11.3715 44.3461 9.79985C42.8929 8.3899 40.549 7.6965 37.3379 7.6965H35.6269Z" fill="black" stroke="white" stroke-width="2" stroke-miterlimit="10"/>
<path d="M54.6118 2.10315C58.4557 2.10315 61.7606 3.46684 64.5262 6.21736C67.292 8.96785 68.6749 12.2962 68.6749 16.2486C68.6749 20.1548 67.3155 23.4601 64.5731 26.1643C61.8543 28.8686 58.526 30.2323 54.6352 30.2323C50.5569 30.2323 47.1817 28.8455 44.4628 26.0719C41.7674 23.2982 40.408 19.993 40.408 16.1562C40.408 13.5906 41.0408 11.233 42.2831 9.08345C43.5487 6.93387 45.2598 5.22347 47.463 3.97534C49.6897 2.72721 52.0335 2.10315 54.6118 2.10315ZM54.5649 7.09566C52.057 7.09566 49.9475 7.95087 48.213 9.68435C46.502 11.4179 45.6348 13.5906 45.6348 16.2486C45.6348 19.2071 46.713 21.5648 48.8693 23.2751C50.5334 24.6157 52.4788 25.286 54.6352 25.286C57.0963 25.286 59.1822 24.4077 60.8933 22.6741C62.6278 20.9176 63.4715 18.768 63.4715 16.2024C63.4715 13.6599 62.6043 11.4872 60.8698 9.73061C59.1354 7.97398 57.026 7.09566 54.5649 7.09566Z" fill="black" stroke="white" stroke-width="2" stroke-miterlimit="10"/>
<path d="M89.3718 29.5388H83.7228L77.6054 18.1901V13.2438H78.7538C80.3945 13.2438 81.5196 13.0358 82.1525 12.5965C82.7618 12.1805 83.09 11.464 83.09 10.4701C83.09 9.89228 82.926 9.3838 82.6213 8.94463C82.3166 8.50547 81.8947 8.20499 81.379 8.02009C80.8634 7.83518 79.9258 7.74272 78.5429 7.74272H77.1366V29.5388H71.9567V2.77332H77.4647C80.4649 2.77332 82.5978 3.02756 83.8635 3.55917C85.1292 4.09079 86.1605 4.9691 86.934 6.19412C87.7074 7.41914 88.1058 8.87529 88.1058 10.5394C88.1058 12.2961 87.684 13.7753 86.8167 14.9542C85.9495 16.1329 84.6604 17.0343 82.9494 17.6353L89.3718 29.5388Z" fill="black" stroke="white" stroke-width="2" stroke-miterlimit="10"/>
<path d="M93.5906 2.77332H98.5595L110.185 20.4089V2.77332H115.365V29.5619H110.396L98.7944 11.9956V29.5619H93.6138L93.5906 2.77332Z" fill="black" stroke="white" stroke-width="2" stroke-miterlimit="10"/>
<path d="M133.085 2.10315C136.928 2.10315 140.233 3.46684 142.998 6.21736C145.764 8.96785 147.147 12.2962 147.147 16.2486C147.147 20.1548 145.788 23.4601 143.046 26.1643C140.326 28.8686 136.999 30.2323 133.108 30.2323C129.029 30.2323 125.655 28.8455 122.935 26.0719C120.24 23.2982 118.881 19.993 118.881 16.1562C118.881 13.5906 119.513 11.233 120.755 9.08345C122.022 6.93387 123.733 5.22347 125.936 3.97534C128.209 2.72721 130.553 2.10315 133.085 2.10315ZM133.085 7.09566C130.576 7.09566 128.467 7.95087 126.732 9.68435C125.021 11.4179 124.154 13.5906 124.154 16.2486C124.154 19.2071 125.232 21.5648 127.389 23.2751C129.053 24.6157 130.999 25.286 133.154 25.286C135.616 25.286 137.702 24.4077 139.413 22.6741C141.147 20.9176 141.991 18.768 141.991 16.2024C141.991 13.6599 141.124 11.4872 139.39 9.73061C137.654 7.97398 135.545 7.09566 133.085 7.09566Z" fill="black" stroke="white" stroke-width="2" stroke-miterlimit="10"/>
<path d="M166.274 6.42537L162.453 9.7537C161.117 7.90464 159.734 6.9801 158.352 6.9801C157.671 6.9801 157.109 7.16501 156.687 7.51171C156.266 7.85841 156.031 8.27445 156.031 8.71362C156.031 9.15279 156.195 9.59193 156.5 9.9849C156.922 10.5165 158.187 11.6722 160.297 13.4287C162.266 15.0467 163.461 16.0868 163.883 16.5029C164.938 17.543 165.664 18.5369 166.11 19.5077C166.555 20.4553 166.766 21.4954 166.766 22.628C166.766 24.8237 165.993 26.6497 164.445 28.0827C162.898 29.5157 160.906 30.2323 158.421 30.2323C156.476 30.2323 154.813 29.77 153.359 28.8224C151.929 27.8978 150.687 26.4186 149.679 24.4077L154.015 21.819C155.328 24.1766 156.828 25.3785 158.539 25.3785C159.43 25.3785 160.18 25.1242 160.766 24.6157C161.375 24.1072 161.679 23.5062 161.679 22.8591C161.679 22.2582 161.445 21.6341 161 21.0331C160.555 20.4322 159.547 19.5077 157.977 18.2364C155.023 15.8557 153.101 14.0297 152.234 12.7354C151.366 11.441 150.945 10.1467 150.945 8.87541C150.945 7.02632 151.672 5.43149 153.101 4.09091C154.531 2.75032 156.312 2.10315 158.421 2.10315C159.781 2.10315 161.07 2.40362 162.289 3.02769C163.578 3.65175 164.867 4.78432 166.274 6.42537Z" fill="black" stroke="white" stroke-width="2" stroke-miterlimit="10"/>
<path d="M133.671 33.9538C132.03 34.1388 130.834 33.5147 129.99 32.1278C129.334 31.0415 128.443 30.1401 127.272 29.5623C125.584 28.7302 124.623 28.7995 123.216 30.0708C122.49 30.7411 121.997 30.1401 121.599 29.7703C119.443 27.8519 118.224 25.4481 118.037 22.582C117.943 20.9871 118.154 19.4154 118.482 17.8437C118.716 16.7343 118.716 15.6017 118.177 14.6078C116.584 11.6724 117.474 9.1068 119.35 6.72611C120.404 5.38553 121.67 3.81381 123.358 3.86004C125.069 3.90626 125.912 3.05106 127.061 2.26521C128.42 1.34067 129.92 0.462351 131.655 1.52557C132.076 1.77982 132.264 1.43312 132.522 1.24821C134.514 -0.1386 136.647 -0.346622 138.898 0.485464C139.741 0.78594 140.584 1.01708 141.452 0.993966C142.694 0.970846 143.444 1.5718 143.936 2.63502C144.78 4.4841 145.366 6.42564 145.53 8.45963C145.647 10.0313 146.233 10.9328 147.921 11.4413C149.609 11.9497 150.522 13.4984 151.226 15.047C151.531 15.7404 151.109 16.3875 150.593 16.8499C149.515 17.8206 149.117 18.9763 148.929 20.3862C148.694 22.0735 148.202 23.7839 146.679 24.9395C146.187 25.3094 145.999 25.8642 145.882 26.442C144.757 32.8444 141.663 33.4916 137.28 33.6996C135.357 33.6996 134.139 33.8383 133.671 33.9538ZM129.311 11.5569C127.272 11.0715 126.076 12.3427 124.951 13.6602C124.014 14.7465 124.881 19.9239 126.076 20.6636C126.123 20.6867 126.17 20.7329 126.193 20.7329C128.373 20.8484 129.217 22.6513 130.413 24.015C131.232 24.9627 132.17 25.5868 133.529 25.7716C135.757 26.049 137.795 25.4249 139.834 24.824C140.28 24.6853 140.726 24.4311 141.053 24.1075C142.413 22.6513 142.835 20.6636 143.608 18.93C144.077 17.9131 143.585 15.9947 142.788 14.7696C141.687 13.0592 140.421 11.4643 139.061 9.96199C137.374 8.11293 134.115 8.13604 132.873 9.96199C131.866 11.2564 130.788 11.8111 129.311 11.5569Z" fill="#FF0000"/>
<path d="M129.217 11.4648C130.788 11.719 131.889 11.1643 132.803 9.82369C134.069 7.95153 137.397 7.92842 139.108 9.82369C140.491 11.3492 141.78 13.0134 142.905 14.7238C143.725 15.972 144.218 17.9135 143.749 18.9536C142.952 20.7102 142.507 22.7442 141.147 24.2234C140.843 24.5701 140.374 24.8244 139.905 24.9631C137.819 25.5872 135.757 26.2112 133.483 25.9339C132.076 25.7489 131.139 25.1249 130.296 24.1542C129.077 22.7673 128.233 20.9183 126.006 20.8027C125.959 20.8027 125.913 20.7564 125.888 20.7333C124.67 19.9705 123.779 14.7006 124.74 13.5913C125.865 12.2738 127.107 10.9794 129.217 11.4648ZM132.662 15.0243C131.983 15.0936 131.303 15.1167 130.647 15.2785C130.108 15.4172 129.475 15.9951 129.896 16.3879C130.905 17.3356 131.139 18.7686 132.194 19.647C133.483 20.6871 134.655 20.5253 135.288 19.1847C135.827 18.0059 135.592 16.8733 134.983 15.7639C134.421 14.77 133.553 15.0012 132.662 15.0243Z" fill="black"/>
</g>
<path d="M60.064 53.528H66.472V56H57.232V40.424H60.064V53.528ZM78.5674 40.112C79.6074 40.112 80.5594 40.288 81.4234 40.64C82.2874 40.976 83.0314 41.48 83.6554 42.152C84.9674 43.56 85.6234 45.576 85.6234 48.2C85.6234 50.84 84.9674 52.88 83.6554 54.32C82.4074 55.664 80.7034 56.336 78.5434 56.336C76.3994 56.336 74.7034 55.648 73.4554 54.272C72.1434 52.848 71.4874 50.824 71.4874 48.2C71.4874 45.544 72.1434 43.512 73.4554 42.104C74.6874 40.776 76.3914 40.112 78.5674 40.112ZM82.6954 48.248C82.6954 46.456 82.3194 45.08 81.5674 44.12C80.8314 43.144 79.8314 42.656 78.5674 42.656C77.3034 42.656 76.2954 43.144 75.5434 44.12C74.7914 45.08 74.4154 46.456 74.4154 48.248C74.4154 50.024 74.7914 51.392 75.5434 52.352C76.2954 53.296 77.3034 53.768 78.5674 53.768C79.8314 53.768 80.8314 53.296 81.5674 52.352C82.3194 51.392 82.6954 50.024 82.6954 48.248ZM92.4742 40.424H102.29V42.872H95.3062V46.976H101.69V49.4H95.3062V56H92.4742V40.424ZM107.011 40.424H119.491V42.872H114.667V56H111.835V42.872H107.011V40.424Z" fill="black"/>
<defs>
<clipPath id="clip0">
<rect width="167" height="34" fill="white"/>
</clipPath>
</defs>
</svg>
