<svg width="1832" height="541" viewBox="0 0 1832 541" fill="none" xmlns="http://www.w3.org/2000/svg">
<path d="M337.677 37.928C334.221 38.12 331.677 38.504 330.045 39.08C328.509 39.656 327.453 40.76 326.877 42.392C326.301 44.024 326.013 46.664 326.013 50.312V121.736C326.013 125.384 326.301 128.024 326.877 129.656C327.453 131.288 328.509 132.392 330.045 132.968C331.677 133.544 334.221 133.928 337.677 134.12V137C331.917 136.712 322.989 136.568 310.893 136.568C299.661 136.568 291.069 136.712 285.117 137V134.12C288.573 133.928 291.069 133.544 292.605 132.968C294.237 132.392 295.341 131.288 295.917 129.656C296.493 128.024 296.781 125.384 296.781 121.736V50.312C296.781 45.32 296.109 42.008 294.765 40.376C293.421 38.744 291.165 37.928 287.997 37.928H287.565C284.973 37.928 282.957 38.792 281.517 40.52C280.077 42.248 279.165 45.512 278.781 50.312C278.493 53 278.253 55.592 278.061 58.088C277.965 60.584 277.821 62.936 277.629 65.144C276.573 80.504 275.277 93.08 273.741 102.872C272.301 112.664 269.613 121.16 265.677 128.36C261.741 135.464 256.077 139.016 248.685 139.016C243.597 139.016 239.373 137.528 236.013 134.552C232.749 131.48 231.117 127.736 231.117 123.32C231.117 118.808 232.653 115.16 235.725 112.376C238.797 109.592 242.637 108.2 247.245 108.2C251.181 108.2 254.301 109.16 256.605 111.08C258.909 112.904 260.061 115.496 260.061 118.856C260.061 123.08 258.621 126.68 255.741 129.656C252.957 132.536 249.405 134.36 245.085 135.128C245.853 135.896 247.053 136.28 248.685 136.28C255.501 136.28 260.733 132.2 264.381 124.04C268.029 115.88 270.525 106.232 271.869 95.096C273.213 83.864 274.413 68.936 275.469 50.312C275.565 49.544 275.613 48.488 275.613 47.144C275.613 44.648 275.277 42.776 274.605 41.528C273.933 40.28 272.781 39.416 271.149 38.936C269.517 38.456 267.069 38.12 263.805 37.928V35.048C267.837 35.336 272.781 35.48 278.637 35.48C280.077 35.48 282.237 35.384 285.117 35.192L291.309 35.048L300.957 35.192C305.373 35.384 309.021 35.48 311.901 35.48C323.325 35.48 331.917 35.336 337.677 35.048V37.928ZM447.215 35.48C451.727 35.48 455.423 35.336 458.303 35.048V37.928C456.095 38.984 453.791 41 451.391 43.976C449.087 46.952 446.351 51.32 443.183 57.08L416.255 111.512L409.487 125.192C407.375 129.512 405.263 132.728 403.151 134.84C400.367 137.624 396.095 139.016 390.335 139.016C384.191 139.016 379.343 137.672 375.791 134.984C372.239 132.2 370.463 128.792 370.463 124.76C370.463 120.728 371.999 117.464 375.071 114.968C378.239 112.376 382.079 111.08 386.591 111.08C391.391 111.08 395.183 112.04 397.967 113.96C400.847 115.784 402.287 118.376 402.287 121.736C402.287 125.192 401.039 128.072 398.543 130.376C396.143 132.68 392.927 134.36 388.895 135.416C389.471 135.896 390.863 136.136 393.071 136.136C395.951 136.136 398.447 135.224 400.559 133.4C402.671 131.48 404.639 128.648 406.463 124.904L409.487 118.712L367.439 47.144C364.079 41.576 360.671 38.504 357.215 37.928V35.048C361.151 35.336 368.927 35.48 380.543 35.48C392.831 35.48 401.135 35.336 405.455 35.048V37.928C401.711 38.312 399.839 40.136 399.839 43.4C399.839 45.416 400.415 47.624 401.567 50.024L424.319 88.76L433.679 70.04C438.095 61.112 440.303 54.056 440.303 48.872C440.303 41.864 436.319 38.216 428.351 37.928V35.048C435.551 35.336 441.839 35.48 447.215 35.48ZM585.519 37.928C582.447 38.12 580.191 38.504 578.751 39.08C577.407 39.656 576.495 40.76 576.015 42.392C575.535 44.024 575.295 46.664 575.295 50.312V121.736C575.295 125.384 575.535 128.024 576.015 129.656C576.495 131.288 577.407 132.392 578.751 132.968C580.191 133.544 582.447 133.928 585.519 134.12V137L578.607 136.856C570.543 136.664 564.255 136.568 559.743 136.568C552.927 136.568 543.039 136.712 530.079 137V133.688C534.783 133.688 538.191 133.4 540.303 132.824C542.511 132.152 543.999 130.904 544.767 129.08C545.631 127.256 546.062 124.328 546.062 120.296V94.088C542.703 95.432 538.575 96.632 533.679 97.688C528.783 98.744 523.551 99.272 517.983 99.272C508.383 99.272 500.655 97.592 494.799 94.232C491.151 92.12 488.607 89.48 487.167 86.312C485.727 83.048 485.007 78.776 485.007 73.496V50.312C485.007 46.664 484.767 44.024 484.287 42.392C483.807 40.76 482.847 39.656 481.407 39.08C480.063 38.504 477.855 38.12 474.783 37.928V35.048C480.255 35.336 488.607 35.48 499.839 35.48C510.591 35.48 518.799 35.336 524.463 35.048V37.928C521.391 38.12 519.183 38.504 517.839 39.08C516.495 39.656 515.535 40.76 514.959 42.392C514.479 44.024 514.239 46.664 514.239 50.312V78.104C514.239 82.616 514.527 86.024 515.103 88.328C515.775 90.536 516.975 92.168 518.703 93.224C520.527 94.184 523.263 94.664 526.911 94.664C530.175 94.664 533.535 94.376 536.991 93.8C540.543 93.128 543.567 92.264 546.062 91.208V50.312C546.062 46.664 545.775 44.024 545.199 42.392C544.719 40.76 543.807 39.656 542.463 39.08C541.119 38.504 538.911 38.12 535.839 37.928V35.048C541.311 35.336 549.855 35.48 561.471 35.48C571.935 35.48 579.951 35.336 585.519 35.048V37.928ZM776.352 37.928C773.28 38.12 771.024 38.504 769.584 39.08C768.24 39.656 767.328 40.76 766.848 42.392C766.368 44.024 766.128 46.664 766.128 50.312V121.736C766.128 125.384 766.368 128.024 766.848 129.656C767.328 131.288 768.24 132.392 769.584 132.968C771.024 133.544 773.28 133.928 776.352 134.12V137C771.168 136.712 763.104 136.568 752.16 136.568C747.744 136.568 741.888 136.664 734.592 136.856L723.792 137L713.568 136.856C705.888 136.664 699.648 136.568 694.848 136.568C690.144 136.568 683.952 136.664 676.272 136.856L665.04 137L654.096 136.856C646.608 136.664 640.656 136.568 636.24 136.568C625.296 136.568 617.232 136.712 612.048 137V134.12C615.12 133.928 617.328 133.544 618.672 132.968C620.016 132.392 620.928 131.288 621.408 129.656C621.984 128.024 622.272 125.384 622.272 121.736V50.312C622.272 46.664 621.984 44.024 621.408 42.392C620.928 40.76 620.016 39.656 618.672 39.08C617.328 38.504 615.12 38.12 612.048 37.928V35.048C617.52 35.336 626.064 35.48 637.68 35.48C647.472 35.48 655.008 35.336 660.288 35.048V37.928C657.6 38.12 655.68 38.504 654.528 39.08C653.376 39.656 652.56 40.76 652.08 42.392C651.696 44.024 651.504 46.664 651.504 50.312V121.736C651.504 125.384 651.792 128.072 652.368 129.8C652.944 131.432 654.048 132.584 655.68 133.256C657.312 133.832 659.808 134.12 663.168 134.12H667.92C671.28 134.12 673.776 133.832 675.408 133.256C677.04 132.584 678.144 131.432 678.72 129.8C679.296 128.072 679.584 125.384 679.584 121.736V50.312C679.584 46.664 679.344 44.024 678.864 42.392C678.48 40.76 677.712 39.656 676.56 39.08C675.408 38.504 673.488 38.12 670.8 37.928V35.048C676.176 35.336 683.712 35.48 693.408 35.48C704.352 35.48 712.416 35.336 717.6 35.048V37.928C714.912 38.12 712.992 38.504 711.84 39.08C710.688 39.656 709.872 40.76 709.392 42.392C709.008 44.024 708.816 46.664 708.816 50.312V121.736C708.816 125.192 709.152 127.784 709.824 129.512C710.592 131.24 711.744 132.392 713.28 132.968C714.912 133.544 717.312 133.928 720.48 134.12H725.232C728.592 134.12 731.088 133.832 732.72 133.256C734.352 132.584 735.456 131.432 736.032 129.8C736.608 128.072 736.896 125.384 736.896 121.736V50.312C736.896 46.664 736.656 44.024 736.176 42.392C735.792 40.76 735.024 39.656 733.872 39.08C732.72 38.504 730.8 38.12 728.112 37.928V35.048C733.392 35.336 740.928 35.48 750.72 35.48C762.336 35.48 770.88 35.336 776.352 35.048V37.928ZM917.146 37.928C914.074 38.12 911.866 38.504 910.522 39.08C909.178 39.656 908.218 40.76 907.642 42.392C907.162 44.024 906.922 46.664 906.922 50.312V121.736C906.922 125.384 907.162 128.024 907.642 129.656C908.218 131.288 909.178 132.392 910.522 132.968C911.866 133.544 914.074 133.928 917.146 134.12V137C911.674 136.712 903.13 136.568 891.514 136.568C881.146 136.568 873.13 136.712 867.466 137V134.12C870.538 133.928 872.746 133.544 874.09 132.968C875.434 132.392 876.346 131.288 876.826 129.656C877.402 128.024 877.69 125.384 877.69 121.736V55.496L842.41 124.04C842.506 126.824 842.842 128.936 843.418 130.376C843.994 131.72 844.954 132.632 846.298 133.112C847.738 133.592 849.85 133.928 852.634 134.12V137C847.066 136.712 839.05 136.568 828.586 136.568C816.97 136.568 808.426 136.712 802.954 137V134.12C806.026 133.928 808.234 133.544 809.578 132.968C810.922 132.392 811.834 131.288 812.314 129.656C812.89 128.024 813.178 125.384 813.178 121.736V50.312C813.178 46.664 812.89 44.024 812.314 42.392C811.834 40.76 810.922 39.656 809.578 39.08C808.234 38.504 806.026 38.12 802.954 37.928V35.048C808.426 35.336 816.97 35.48 828.586 35.48C838.954 35.48 846.97 35.336 852.634 35.048V37.928C849.562 38.12 847.354 38.504 846.01 39.08C844.666 39.656 843.706 40.76 843.13 42.392C842.65 44.024 842.41 46.664 842.41 50.312V116.84L877.69 48.44C877.594 45.464 877.258 43.304 876.682 41.96C876.106 40.52 875.146 39.56 873.802 39.08C872.458 38.504 870.346 38.12 867.466 37.928V35.048C873.034 35.336 881.05 35.48 891.514 35.48C903.13 35.48 911.674 35.336 917.146 35.048V37.928ZM1057.85 37.928C1054.78 38.12 1052.57 38.504 1051.23 39.08C1049.88 39.656 1048.92 40.76 1048.35 42.392C1047.87 44.024 1047.63 46.664 1047.63 50.312V121.736C1047.63 125.384 1047.87 128.024 1048.35 129.656C1048.92 131.288 1049.88 132.392 1051.23 132.968C1052.57 133.544 1054.78 133.928 1057.85 134.12V137C1052.38 136.712 1043.83 136.568 1032.22 136.568C1021.85 136.568 1013.83 136.712 1008.17 137V134.12C1011.24 133.928 1013.45 133.544 1014.79 132.968C1016.14 132.392 1017.05 131.288 1017.53 129.656C1018.11 128.024 1018.39 125.384 1018.39 121.736V55.496L983.113 124.04C983.209 126.824 983.545 128.936 984.121 130.376C984.697 131.72 985.657 132.632 987.001 133.112C988.441 133.592 990.553 133.928 993.337 134.12V137C987.769 136.712 979.753 136.568 969.289 136.568C957.673 136.568 949.129 136.712 943.657 137V134.12C946.729 133.928 948.937 133.544 950.281 132.968C951.625 132.392 952.537 131.288 953.017 129.656C953.593 128.024 953.881 125.384 953.881 121.736V50.312C953.881 46.664 953.593 44.024 953.017 42.392C952.537 40.76 951.625 39.656 950.281 39.08C948.937 38.504 946.729 38.12 943.657 37.928V35.048C949.129 35.336 957.673 35.48 969.289 35.48C979.657 35.48 987.673 35.336 993.337 35.048V37.928C990.265 38.12 988.057 38.504 986.713 39.08C985.369 39.656 984.409 40.76 983.833 42.392C983.353 44.024 983.113 46.664 983.113 50.312V116.84L1018.39 48.44C1018.3 45.464 1017.96 43.304 1017.39 41.96C1016.81 40.52 1015.85 39.56 1014.51 39.08C1013.16 38.504 1011.05 38.12 1008.17 37.928V35.048C1013.74 35.336 1021.75 35.48 1032.22 35.48C1043.83 35.48 1052.38 35.336 1057.85 35.048V37.928ZM1023.87 0.631996C1027.9 0.631996 1031.21 1.68799 1033.8 3.79999C1036.49 5.81599 1037.83 8.31199 1037.83 11.288C1037.83 13.688 1036.92 15.848 1035.1 17.768C1033.37 19.592 1031.02 21.176 1028.04 22.52C1024.97 23.96 1021.08 25.112 1016.38 25.976C1011.67 26.84 1006.49 27.272 1000.83 27.272C995.161 27.272 989.977 26.84 985.273 25.976C980.569 25.112 976.633 23.96 973.465 22.52C970.585 21.272 968.281 19.688 966.553 17.768C964.825 15.848 963.961 13.688 963.961 11.288C963.961 8.31199 965.257 5.81599 967.849 3.79999C970.441 1.68799 973.753 0.631996 977.785 0.631996C981.817 0.631996 985.177 1.68799 987.865 3.79999C990.553 5.81599 991.897 8.40799 991.897 11.576C991.897 14.264 990.889 16.52 988.873 18.344C986.857 20.168 984.313 21.464 981.241 22.232C987.385 23.672 993.913 24.392 1000.83 24.392C1007.74 24.392 1014.22 23.624 1020.27 22.088C1017.1 21.224 1014.55 19.928 1012.63 18.2C1010.81 16.376 1009.9 14.168 1009.9 11.576C1009.9 8.40799 1011.19 5.81599 1013.79 3.79999C1016.47 1.68799 1019.83 0.631996 1023.87 0.631996ZM1234.43 37.928C1230.97 38.12 1228.43 38.504 1226.79 39.08C1225.26 39.656 1224.2 40.76 1223.63 42.392C1223.05 44.024 1222.76 46.664 1222.76 50.312V121.736C1222.76 125.384 1223.05 128.024 1223.63 129.656C1224.2 131.288 1225.26 132.392 1226.79 132.968C1228.43 133.544 1230.97 133.928 1234.43 134.12V137C1228.67 136.712 1219.74 136.568 1207.64 136.568C1196.41 136.568 1187.82 136.712 1181.87 137V134.12C1185.32 133.928 1187.82 133.544 1189.35 132.968C1190.99 132.392 1192.09 131.288 1192.67 129.656C1193.24 128.024 1193.53 125.384 1193.53 121.736V50.312C1193.53 45.32 1192.86 42.008 1191.51 40.376C1190.17 38.744 1187.91 37.928 1184.75 37.928H1184.31C1181.72 37.928 1179.71 38.792 1178.27 40.52C1176.83 42.248 1175.91 45.512 1175.53 50.312C1175.24 53 1175 55.592 1174.81 58.088C1174.71 60.584 1174.57 62.936 1174.38 65.144C1173.32 80.504 1172.03 93.08 1170.49 102.872C1169.05 112.664 1166.36 121.16 1162.43 128.36C1158.49 135.464 1152.83 139.016 1145.43 139.016C1140.35 139.016 1136.12 137.528 1132.76 134.552C1129.5 131.48 1127.87 127.736 1127.87 123.32C1127.87 118.808 1129.4 115.16 1132.47 112.376C1135.55 109.592 1139.39 108.2 1143.99 108.2C1147.93 108.2 1151.05 109.16 1153.35 111.08C1155.66 112.904 1156.81 115.496 1156.81 118.856C1156.81 123.08 1155.37 126.68 1152.49 129.656C1149.71 132.536 1146.15 134.36 1141.83 135.128C1142.6 135.896 1143.8 136.28 1145.43 136.28C1152.25 136.28 1157.48 132.2 1161.13 124.04C1164.78 115.88 1167.27 106.232 1168.62 95.096C1169.96 83.864 1171.16 68.936 1172.22 50.312C1172.31 49.544 1172.36 48.488 1172.36 47.144C1172.36 44.648 1172.03 42.776 1171.35 41.528C1170.68 40.28 1169.53 39.416 1167.9 38.936C1166.27 38.456 1163.82 38.12 1160.55 37.928V35.048C1164.59 35.336 1169.53 35.48 1175.39 35.48C1176.83 35.48 1178.99 35.384 1181.87 35.192L1188.06 35.048L1197.71 35.192C1202.12 35.384 1205.77 35.48 1208.65 35.48C1220.07 35.48 1228.67 35.336 1234.43 35.048V37.928ZM1314.62 33.032C1325.46 33.032 1334.97 35.096 1343.13 39.224C1351.29 43.352 1357.62 49.352 1362.14 57.224C1366.65 65 1368.9 74.312 1368.9 85.16C1368.9 95.72 1366.6 105.08 1361.99 113.24C1357.38 121.4 1350.95 127.736 1342.7 132.248C1334.44 136.76 1325.03 139.016 1314.47 139.016C1303.62 139.016 1294.12 136.952 1285.96 132.824C1277.8 128.696 1271.46 122.744 1266.95 114.968C1262.44 107.096 1260.18 97.736 1260.18 86.888C1260.18 76.328 1262.49 66.968 1267.1 58.808C1271.7 50.648 1278.14 44.312 1286.39 39.8C1294.65 35.288 1304.06 33.032 1314.62 33.032ZM1314.04 35.624C1309.34 35.624 1305.16 37.784 1301.51 42.104C1297.96 46.328 1295.22 52.28 1293.3 59.96C1291.38 67.64 1290.42 76.424 1290.42 86.312C1290.42 96.296 1291.53 105.08 1293.74 112.664C1295.94 120.248 1298.92 126.104 1302.66 130.232C1306.41 134.36 1310.54 136.424 1315.05 136.424C1319.75 136.424 1323.88 134.312 1327.43 130.088C1331.08 125.768 1333.86 119.768 1335.78 112.088C1337.7 104.408 1338.66 95.624 1338.66 85.736C1338.66 75.752 1337.56 66.968 1335.35 59.384C1333.14 51.8 1330.17 45.944 1326.42 41.816C1322.68 37.688 1318.55 35.624 1314.04 35.624ZM1531.43 85.16C1531.43 97.064 1526.82 106.616 1517.6 113.816C1508.39 121.016 1494.95 125.384 1477.28 126.92V132.392C1477.28 136.04 1477.52 138.68 1478 140.312C1478.58 141.944 1479.54 143.048 1480.88 143.624C1482.23 144.2 1484.43 144.584 1487.51 144.776V147.656C1481.94 147.368 1473.92 147.224 1463.46 147.224C1451.84 147.224 1443.3 147.368 1437.83 147.656V144.776C1440.9 144.584 1443.11 144.2 1444.45 143.624C1445.89 143.048 1446.85 141.944 1447.33 140.312C1447.81 138.68 1448.05 136.04 1448.05 132.392V126.92C1411.95 124.136 1393.91 110.312 1393.91 85.448C1393.91 73.928 1398.51 64.712 1407.73 57.8C1416.95 50.888 1430.39 46.664 1448.05 45.128V39.656C1448.05 36.008 1447.76 33.368 1447.19 31.736C1446.71 30.104 1445.79 29 1444.45 28.424C1443.11 27.848 1440.9 27.464 1437.83 27.272V24.392C1443.3 24.68 1451.84 24.824 1463.46 24.824C1473.92 24.824 1481.94 24.68 1487.51 24.392V27.272C1484.43 27.464 1482.18 27.848 1480.74 28.424C1479.39 29 1478.48 30.104 1478 31.736C1477.52 33.368 1477.28 36.008 1477.28 39.656V44.984C1513.38 47.768 1531.43 61.16 1531.43 85.16ZM1424.15 84.872C1424.15 93.512 1424.91 100.52 1426.45 105.896C1427.99 111.272 1430.48 115.448 1433.94 118.424C1437.39 121.304 1442.1 123.32 1448.05 124.472V47.432C1441.81 48.392 1436.96 50.264 1433.51 53.048C1430.05 55.832 1427.6 59.768 1426.16 64.856C1424.82 69.848 1424.15 76.52 1424.15 84.872ZM1501.19 85.736C1501.19 77.288 1500.42 70.472 1498.88 65.288C1497.35 60.104 1494.85 56.12 1491.39 53.336C1487.94 50.552 1483.23 48.632 1477.28 47.576V124.616C1483.52 123.56 1488.37 121.592 1491.83 118.712C1495.28 115.736 1497.68 111.656 1499.03 106.472C1500.47 101.192 1501.19 94.28 1501.19 85.736ZM1648.52 35.048C1647.84 45.704 1647.51 55.208 1647.51 63.56C1647.51 67.976 1647.65 71.432 1647.94 73.928H1644.63C1641.46 61.352 1637.38 52.28 1632.39 46.712C1627.4 41.144 1622.02 38.36 1616.26 38.36H1616.12V120.728C1616.12 124.76 1616.5 127.688 1617.27 129.512C1618.13 131.336 1619.62 132.584 1621.73 133.256C1623.94 133.832 1627.4 134.12 1632.1 134.12V137C1618.56 136.712 1608.05 136.568 1600.56 136.568C1593.75 136.568 1583.86 136.712 1570.9 137V134.12C1575.6 134.12 1579.01 133.832 1581.12 133.256C1583.33 132.584 1584.82 131.336 1585.59 129.512C1586.45 127.688 1586.88 124.76 1586.88 120.728V38.36H1586.74C1580.88 38.36 1575.46 41.144 1570.47 46.712C1565.57 52.184 1561.54 61.256 1558.37 73.928H1555.06C1555.35 71.432 1555.49 67.976 1555.49 63.56C1555.49 55.208 1555.16 45.704 1554.48 35.048C1563.6 35.336 1579.3 35.48 1601.57 35.48C1623.75 35.48 1639.4 35.336 1648.52 35.048ZM95.0455 334.12C94.3735 341.512 94.0375 348.136 94.0375 353.992C94.0375 358.024 94.1815 361.24 94.4695 363.64H91.1575C89.4295 354.136 86.0695 347.32 81.0775 343.192C76.0855 339.064 70.1335 337 63.2215 337H32.4055C25.4935 337 19.5415 339.064 14.5495 343.192C9.5575 347.32 6.1975 354.136 4.4695 363.64H1.1575C1.4455 361.24 1.5895 358.024 1.5895 353.992C1.5895 348.136 1.2535 341.512 0.5815 334.12H3.1735C9.7975 334.12 14.8855 330.328 18.4375 322.744C22.0855 315.16 24.5815 306.04 25.9255 295.384C27.3655 284.728 28.6135 270.904 29.6695 253.912L29.9575 250.312C30.0535 249.544 30.1015 248.488 30.1015 247.144C30.1015 244.648 29.7655 242.776 29.0935 241.528C28.4215 240.28 27.2695 239.416 25.6375 238.936C24.0055 238.456 21.5575 238.12 18.2935 237.928V235.048C22.3255 235.336 27.2695 235.48 33.1255 235.48C34.5655 235.48 36.7255 235.384 39.6055 235.192L45.7975 235.048L55.4455 235.192C59.8615 235.384 63.5095 235.48 66.3895 235.48C77.8135 235.48 86.4055 235.336 92.1655 235.048V237.928C88.7095 238.12 86.1655 238.504 84.5335 239.08C82.9975 239.656 81.9415 240.76 81.3655 242.392C80.7895 244.024 80.5015 246.664 80.5015 250.312V321.736C80.5015 325.384 80.7415 328.072 81.2215 329.8C81.7975 331.432 82.7575 332.584 84.1015 333.256C85.5415 333.832 87.7495 334.12 90.7255 334.12H95.0455ZM51.2695 250.312C51.2695 245.32 50.5975 242.008 49.2535 240.376C47.9095 238.744 45.6535 237.928 42.4855 237.928H40.6135C38.5975 237.928 36.9175 238.84 35.5735 240.664C34.3255 242.392 33.5575 245.608 33.2695 250.312L32.1175 264.424C31.2535 276.904 30.2935 287.32 29.2375 295.672C28.1815 303.928 26.3575 311.656 23.7655 318.856C21.1735 326.056 17.5255 331.144 12.8215 334.12H39.6055C42.9655 334.12 45.4615 333.832 47.0935 333.256C48.7255 332.584 49.8295 331.432 50.4055 329.8C50.9815 328.072 51.2695 325.384 51.2695 321.736V250.312ZM218.661 237.928C215.205 238.12 212.661 238.504 211.029 239.08C209.493 239.656 208.437 240.76 207.861 242.392C207.285 244.024 206.997 246.664 206.997 250.312V321.736C206.997 325.384 207.285 328.024 207.861 329.656C208.437 331.288 209.493 332.392 211.029 332.968C212.661 333.544 215.205 333.928 218.661 334.12V337C212.901 336.712 203.973 336.568 191.877 336.568C180.645 336.568 172.053 336.712 166.101 337V334.12C169.557 333.928 172.053 333.544 173.589 332.968C175.221 332.392 176.325 331.288 176.901 329.656C177.477 328.024 177.765 325.384 177.765 321.736V250.312C177.765 245.32 177.093 242.008 175.749 240.376C174.405 238.744 172.149 237.928 168.981 237.928H168.549C165.957 237.928 163.941 238.792 162.501 240.52C161.061 242.248 160.149 245.512 159.765 250.312C159.477 253 159.237 255.592 159.045 258.088C158.949 260.584 158.805 262.936 158.613 265.144C157.557 280.504 156.261 293.08 154.725 302.872C153.285 312.664 150.597 321.16 146.661 328.36C142.725 335.464 137.061 339.016 129.669 339.016C124.581 339.016 120.357 337.528 116.997 334.552C113.733 331.48 112.101 327.736 112.101 323.32C112.101 318.808 113.637 315.16 116.709 312.376C119.781 309.592 123.621 308.2 128.229 308.2C132.165 308.2 135.285 309.16 137.589 311.08C139.893 312.904 141.045 315.496 141.045 318.856C141.045 323.08 139.605 326.68 136.725 329.656C133.941 332.536 130.389 334.36 126.069 335.128C126.837 335.896 128.037 336.28 129.669 336.28C136.485 336.28 141.717 332.2 145.365 324.04C149.013 315.88 151.509 306.232 152.853 295.096C154.197 283.864 155.397 268.936 156.453 250.312C156.549 249.544 156.597 248.488 156.597 247.144C156.597 244.648 156.261 242.776 155.589 241.528C154.917 240.28 153.765 239.416 152.133 238.936C150.501 238.456 148.053 238.12 144.789 237.928V235.048C148.821 235.336 153.765 235.48 159.621 235.48C161.061 235.48 163.221 235.384 166.101 235.192L172.293 235.048L181.941 235.192C186.357 235.384 190.005 235.48 192.885 235.48C204.309 235.48 212.901 235.336 218.661 235.048V237.928ZM341.015 237.928C337.943 238.12 335.735 238.504 334.391 239.08C333.047 239.656 332.087 240.76 331.511 242.392C331.031 244.024 330.791 246.664 330.791 250.312V321.736C330.791 325.384 331.031 328.024 331.511 329.656C331.991 331.288 332.903 332.392 334.247 332.968C335.687 333.544 337.943 333.928 341.015 334.12V337C335.543 336.712 326.999 336.568 315.383 336.568C305.015 336.568 296.999 336.712 291.335 337V334.12C294.407 333.928 296.615 333.544 297.959 332.968C299.303 332.392 300.215 331.288 300.695 329.656C301.271 328.024 301.559 325.384 301.559 321.736V288.616H293.639C290.279 288.616 287.735 290.344 286.007 293.8C284.375 297.256 283.079 302.344 282.119 309.064L279.959 323.464C279.095 329.128 276.839 333.16 273.191 335.56C269.543 337.864 264.503 339.016 258.071 339.016C253.559 339.016 249.575 338.392 246.119 337.144C242.663 335.992 239.639 334.024 237.047 331.24L238.919 329.368C240.167 330.616 241.655 331.24 243.383 331.24C245.111 331.24 246.455 330.568 247.415 329.224C248.375 327.88 249.191 325.432 249.863 321.88L252.599 306.904C253.655 301.048 256.727 296.776 261.815 294.088C266.903 291.304 274.487 289.336 284.567 288.184H284.711C271.943 287.128 262.919 284.296 257.639 279.688C252.359 274.984 249.719 268.984 249.719 261.688C249.719 252.664 253.271 245.992 260.375 241.672C267.479 237.352 278.375 235.192 293.063 235.192C295.559 235.192 297.767 235.24 299.687 235.336L316.247 235.48C327.287 235.48 335.543 235.336 341.015 235.048V237.928ZM293.783 237.928C288.887 237.928 285.335 239.944 283.127 243.976C281.015 248.008 279.959 253.96 279.959 261.832C279.959 269.416 281.207 275.32 283.703 279.544C286.199 283.672 290.855 285.736 297.671 285.736H301.559V250.312C301.559 246.856 301.367 244.264 300.983 242.536C300.599 240.808 299.831 239.608 298.679 238.936C297.623 238.264 295.991 237.928 293.783 237.928ZM548.975 237.928C545.903 238.12 543.647 238.504 542.207 239.08C540.863 239.656 539.951 240.76 539.471 242.392C538.991 244.024 538.751 246.664 538.751 250.312V321.736C538.751 325.384 538.991 328.024 539.471 329.656C540.047 331.288 541.007 332.392 542.351 332.968C543.695 333.544 545.903 333.928 548.975 334.12V337C543.119 336.712 534.623 336.568 523.487 336.568C511.871 336.568 503.327 336.712 497.855 337V334.12C501.311 333.928 503.807 333.544 505.343 332.968C506.975 332.392 508.079 331.288 508.655 329.656C509.231 328.024 509.519 325.384 509.519 321.736V248.152L474.815 336.856H472.511L431.903 244.408V308.776C431.903 315.88 432.191 321.016 432.767 324.184C433.343 327.256 434.591 329.512 436.511 330.952C438.527 332.392 441.839 333.448 446.447 334.12V337C442.511 336.712 437.135 336.568 430.319 336.568C425.231 336.568 421.247 336.712 418.367 337V334.12C421.343 333.448 423.551 332.44 424.991 331.096C426.431 329.656 427.391 327.496 427.871 324.616C428.351 321.736 428.591 317.416 428.591 311.656V250.312C428.591 246.664 428.303 244.024 427.727 242.392C427.247 240.76 426.335 239.656 424.991 239.08C423.647 238.504 421.439 238.12 418.367 237.928V235.048C421.247 235.336 425.231 235.48 430.319 235.48C441.839 235.48 451.775 235.336 460.127 235.048L487.343 296.248L510.959 235.48H523.487C534.623 235.48 543.119 235.336 548.975 235.048V237.928ZM657.884 312.808C657.884 322.6 658.22 330.664 658.892 337C652.364 336.712 641.372 336.568 625.916 336.568C603.452 336.568 586.652 336.712 575.516 337V334.12C578.588 333.928 580.796 333.544 582.14 332.968C583.58 332.392 584.54 331.288 585.02 329.656C585.5 328.024 585.74 325.384 585.74 321.736V250.312C585.74 246.664 585.452 244.024 584.876 242.392C584.396 240.76 583.484 239.656 582.14 239.08C580.796 238.504 578.588 238.12 575.516 237.928V235.048C586.652 235.336 603.452 235.48 625.916 235.48C640.028 235.48 650.06 235.336 656.012 235.048C655.34 244.072 655.004 252.136 655.004 259.24C655.004 263.656 655.148 267.112 655.436 269.608H652.124C650.396 258.472 647.18 250.504 642.476 245.704C637.772 240.808 632.156 238.36 625.628 238.36H623.756C621.164 238.36 619.244 238.6 617.996 239.08C616.844 239.464 616.028 240.28 615.548 241.528C615.164 242.68 614.972 244.648 614.972 247.432V284.296H616.412C621.404 284.296 625.676 282.328 629.228 278.392C632.78 274.456 635.036 270.088 635.996 265.288H639.308C639.02 269.32 638.876 273.832 638.876 278.824V285.736C638.876 290.632 639.164 297.448 639.74 306.184H636.428C635.564 300.712 633.308 296.2 629.66 292.648C626.108 289 621.692 287.176 616.412 287.176H614.972V324.616C614.972 327.4 615.164 329.416 615.548 330.664C616.028 331.816 616.844 332.632 617.996 333.112C619.244 333.496 621.164 333.688 623.756 333.688H628.508C634.076 333.688 639.356 331 644.348 325.624C649.34 320.152 652.892 311.464 655.004 299.56H658.316C658.028 303.016 657.884 307.432 657.884 312.808ZM727.129 295.816V320.296C727.129 324.328 727.513 327.256 728.281 329.08C729.145 330.904 730.633 332.152 732.745 332.824C734.953 333.4 738.409 333.688 743.113 333.688V337C730.153 336.712 720.265 336.568 713.449 336.568C708.937 336.568 702.649 336.664 694.585 336.856L687.673 337V334.12C690.745 333.928 692.953 333.544 694.297 332.968C695.737 332.392 696.697 331.288 697.177 329.656C697.657 328.024 697.897 325.384 697.897 321.736V250.312C697.897 246.664 697.609 244.024 697.033 242.392C696.553 240.76 695.641 239.656 694.297 239.08C692.953 238.504 690.745 238.12 687.673 237.928V235.048C693.145 235.336 701.401 235.48 712.441 235.48L729.001 235.336C730.921 235.24 733.129 235.192 735.625 235.192C749.833 235.192 760.585 237.784 767.881 242.968C775.273 248.056 778.969 254.92 778.969 263.56C778.969 268.84 777.529 273.928 774.649 278.824C771.769 283.624 766.873 287.656 759.961 290.92C753.049 294.184 743.881 295.816 732.457 295.816H727.129ZM734.905 237.928C732.697 237.928 731.017 238.264 729.865 238.936C728.809 239.608 728.089 240.808 727.705 242.536C727.321 244.264 727.129 246.856 727.129 250.312V292.936H731.017C737.737 292.936 742.345 290.44 744.841 285.448C747.433 280.456 748.729 273.688 748.729 265.144C748.729 255.832 747.673 248.968 745.561 244.552C743.449 240.136 739.897 237.928 734.905 237.928ZM859.35 233.032C870.198 233.032 879.702 235.096 887.862 239.224C896.022 243.352 902.358 249.352 906.87 257.224C911.382 265 913.638 274.312 913.638 285.16C913.638 295.72 911.334 305.08 906.726 313.24C902.118 321.4 895.686 327.736 887.43 332.248C879.174 336.76 869.766 339.016 859.206 339.016C848.358 339.016 838.854 336.952 830.694 332.824C822.534 328.696 816.198 322.744 811.686 314.968C807.174 307.096 804.918 297.736 804.918 286.888C804.918 276.328 807.222 266.968 811.83 258.808C816.438 250.648 822.87 244.312 831.126 239.8C839.382 235.288 848.79 233.032 859.35 233.032ZM858.774 235.624C854.07 235.624 849.894 237.784 846.246 242.104C842.694 246.328 839.958 252.28 838.038 259.96C836.118 267.64 835.158 276.424 835.158 286.312C835.158 296.296 836.262 305.08 838.47 312.664C840.678 320.248 843.654 326.104 847.398 330.232C851.142 334.36 855.27 336.424 859.782 336.424C864.486 336.424 868.614 334.312 872.166 330.088C875.814 325.768 878.598 319.768 880.518 312.088C882.438 304.408 883.398 295.624 883.398 285.736C883.398 275.752 882.294 266.968 880.086 259.384C877.878 251.8 874.902 245.944 871.158 241.816C867.414 237.688 863.286 235.624 858.774 235.624ZM1051.56 237.928C1048.49 238.12 1046.28 238.504 1044.94 239.08C1043.59 239.656 1042.63 240.76 1042.06 242.392C1041.58 244.024 1041.34 246.664 1041.34 250.312V321.736C1041.34 325.384 1041.58 328.024 1042.06 329.656C1042.63 331.288 1043.59 332.392 1044.94 332.968C1046.28 333.544 1048.49 333.928 1051.56 334.12V337C1046.09 336.712 1037.55 336.568 1025.93 336.568C1015.56 336.568 1007.55 336.712 1001.88 337V334.12C1004.95 333.928 1007.16 333.544 1008.51 332.968C1009.85 332.392 1010.76 331.288 1011.24 329.656C1011.82 328.024 1012.11 325.384 1012.11 321.736V250.312C1012.11 246.664 1011.82 244.024 1011.24 242.392C1010.67 240.664 1009.56 239.512 1007.93 238.936C1006.3 238.264 1003.8 237.928 1000.44 237.928H991.371C988.011 237.928 985.515 238.264 983.883 238.936C982.251 239.512 981.147 240.664 980.571 242.392C979.995 244.024 979.707 246.664 979.707 250.312V321.736C979.707 325.384 979.947 328.024 980.427 329.656C981.003 331.288 981.963 332.392 983.307 332.968C984.651 333.544 986.859 333.928 989.931 334.12V337C984.363 336.712 976.347 336.568 965.883 336.568C954.267 336.568 945.723 336.712 940.251 337V334.12C943.323 333.928 945.531 333.544 946.875 332.968C948.219 332.392 949.131 331.288 949.611 329.656C950.187 328.024 950.475 325.384 950.475 321.736V250.312C950.475 246.664 950.187 244.024 949.611 242.392C949.131 240.76 948.219 239.656 946.875 239.08C945.531 238.504 943.323 238.12 940.251 237.928V235.048C945.723 235.336 954.267 235.48 965.883 235.48C970.683 235.48 976.923 235.384 984.603 235.192L996.123 235.048L1007.35 235.192C1015.03 235.384 1021.23 235.48 1025.93 235.48C1037.55 235.48 1046.09 235.336 1051.56 235.048V237.928ZM1117.6 295.816V320.296C1117.6 324.328 1117.98 327.256 1118.75 329.08C1119.61 330.904 1121.1 332.152 1123.21 332.824C1125.42 333.4 1128.88 333.688 1133.58 333.688V337C1120.62 336.712 1110.73 336.568 1103.92 336.568C1099.41 336.568 1093.12 336.664 1085.05 336.856L1078.14 337V334.12C1081.21 333.928 1083.42 333.544 1084.77 332.968C1086.21 332.392 1087.17 331.288 1087.65 329.656C1088.13 328.024 1088.37 325.384 1088.37 321.736V250.312C1088.37 246.664 1088.08 244.024 1087.5 242.392C1087.02 240.76 1086.11 239.656 1084.77 239.08C1083.42 238.504 1081.21 238.12 1078.14 237.928V235.048C1083.61 235.336 1091.87 235.48 1102.91 235.48L1119.47 235.336C1121.39 235.24 1123.6 235.192 1126.09 235.192C1140.3 235.192 1151.05 237.784 1158.35 242.968C1165.74 248.056 1169.44 254.92 1169.44 263.56C1169.44 268.84 1168 273.928 1165.12 278.824C1162.24 283.624 1157.34 287.656 1150.43 290.92C1143.52 294.184 1134.35 295.816 1122.93 295.816H1117.6ZM1125.37 237.928C1123.17 237.928 1121.49 238.264 1120.33 238.936C1119.28 239.608 1118.56 240.808 1118.17 242.536C1117.79 244.264 1117.6 246.856 1117.6 250.312V292.936H1121.49C1128.21 292.936 1132.81 290.44 1135.31 285.448C1137.9 280.456 1139.2 273.688 1139.2 265.144C1139.2 255.832 1138.14 248.968 1136.03 244.552C1133.92 240.136 1130.37 237.928 1125.37 237.928ZM1307.3 237.928C1304.23 238.12 1302.02 238.504 1300.68 239.08C1299.33 239.656 1298.37 240.76 1297.8 242.392C1297.32 244.024 1297.08 246.664 1297.08 250.312V321.736C1297.08 325.384 1297.32 328.024 1297.8 329.656C1298.37 331.288 1299.33 332.392 1300.68 332.968C1302.02 333.544 1304.23 333.928 1307.3 334.12V337C1301.83 336.712 1293.29 336.568 1281.67 336.568C1271.3 336.568 1263.29 336.712 1257.62 337V334.12C1260.69 333.928 1262.9 333.544 1264.25 332.968C1265.59 332.392 1266.5 331.288 1266.98 329.656C1267.56 328.024 1267.85 325.384 1267.85 321.736V255.496L1232.57 324.04C1232.66 326.824 1233 328.936 1233.57 330.376C1234.15 331.72 1235.11 332.632 1236.45 333.112C1237.89 333.592 1240.01 333.928 1242.79 334.12V337C1237.22 336.712 1229.21 336.568 1218.74 336.568C1207.13 336.568 1198.58 336.712 1193.11 337V334.12C1196.18 333.928 1198.39 333.544 1199.73 332.968C1201.08 332.392 1201.99 331.288 1202.47 329.656C1203.05 328.024 1203.33 325.384 1203.33 321.736V250.312C1203.33 246.664 1203.05 244.024 1202.47 242.392C1201.99 240.76 1201.08 239.656 1199.73 239.08C1198.39 238.504 1196.18 238.12 1193.11 237.928V235.048C1198.58 235.336 1207.13 235.48 1218.74 235.48C1229.11 235.48 1237.13 235.336 1242.79 235.048V237.928C1239.72 238.12 1237.51 238.504 1236.17 239.08C1234.82 239.656 1233.86 240.76 1233.29 242.392C1232.81 244.024 1232.57 246.664 1232.57 250.312V316.84L1267.85 248.44C1267.75 245.464 1267.41 243.304 1266.84 241.96C1266.26 240.52 1265.3 239.56 1263.96 239.08C1262.61 238.504 1260.5 238.12 1257.62 237.928V235.048C1263.19 235.336 1271.21 235.48 1281.67 235.48C1293.29 235.48 1301.83 235.336 1307.3 235.048V237.928ZM1430.44 237.928C1427.37 238.12 1425.16 238.504 1423.81 239.08C1422.47 239.656 1421.51 240.76 1420.93 242.392C1420.45 244.024 1420.21 246.664 1420.21 250.312V321.736C1420.21 325.384 1420.45 328.024 1420.93 329.656C1421.41 331.288 1422.33 332.392 1423.67 332.968C1425.11 333.544 1427.37 333.928 1430.44 334.12V337C1424.97 336.712 1416.42 336.568 1404.81 336.568C1394.44 336.568 1386.42 336.712 1380.76 337V334.12C1383.83 333.928 1386.04 333.544 1387.38 332.968C1388.73 332.392 1389.64 331.288 1390.12 329.656C1390.69 328.024 1390.98 325.384 1390.98 321.736V288.616H1383.06C1379.7 288.616 1377.16 290.344 1375.43 293.8C1373.8 297.256 1372.5 302.344 1371.54 309.064L1369.38 323.464C1368.52 329.128 1366.26 333.16 1362.61 335.56C1358.97 337.864 1353.93 339.016 1347.49 339.016C1342.98 339.016 1339 338.392 1335.54 337.144C1332.09 335.992 1329.06 334.024 1326.47 331.24L1328.34 329.368C1329.59 330.616 1331.08 331.24 1332.81 331.24C1334.53 331.24 1335.88 330.568 1336.84 329.224C1337.8 327.88 1338.61 325.432 1339.29 321.88L1342.02 306.904C1343.08 301.048 1346.15 296.776 1351.24 294.088C1356.33 291.304 1363.91 289.336 1373.99 288.184H1374.13C1361.37 287.128 1352.34 284.296 1347.06 279.688C1341.78 274.984 1339.14 268.984 1339.14 261.688C1339.14 252.664 1342.69 245.992 1349.8 241.672C1356.9 237.352 1367.8 235.192 1382.49 235.192C1384.98 235.192 1387.19 235.24 1389.11 235.336L1405.67 235.48C1416.71 235.48 1424.97 235.336 1430.44 235.048V237.928ZM1383.21 237.928C1378.31 237.928 1374.76 239.944 1372.55 243.976C1370.44 248.008 1369.38 253.96 1369.38 261.832C1369.38 269.416 1370.63 275.32 1373.13 279.544C1375.62 283.672 1380.28 285.736 1387.09 285.736H1390.98V250.312C1390.98 246.856 1390.79 244.264 1390.41 242.536C1390.02 240.808 1389.25 239.608 1388.1 238.936C1387.05 238.264 1385.41 237.928 1383.21 237.928ZM1550.25 235.048C1549.58 245.704 1549.24 255.208 1549.24 263.56C1549.24 267.976 1549.39 271.432 1549.67 273.928H1546.36C1543.19 261.352 1539.11 252.28 1534.12 246.712C1529.13 241.144 1523.75 238.36 1517.99 238.36H1517.85V320.728C1517.85 324.76 1518.23 327.688 1519 329.512C1519.87 331.336 1521.35 332.584 1523.47 333.256C1525.67 333.832 1529.13 334.12 1533.83 334.12V337C1520.3 336.712 1509.79 336.568 1502.3 336.568C1495.48 336.568 1485.59 336.712 1472.63 337V334.12C1477.34 334.12 1480.75 333.832 1482.86 333.256C1485.07 332.584 1486.55 331.336 1487.32 329.512C1488.19 327.688 1488.62 324.76 1488.62 320.728V238.36H1488.47C1482.62 238.36 1477.19 241.144 1472.2 246.712C1467.31 252.184 1463.27 261.256 1460.11 273.928H1456.79C1457.08 271.432 1457.23 267.976 1457.23 263.56C1457.23 255.208 1456.89 245.704 1456.22 235.048C1465.34 235.336 1481.03 235.48 1503.31 235.48C1525.48 235.48 1541.13 235.336 1550.25 235.048ZM1690.32 237.928C1687.25 238.12 1685.04 238.504 1683.69 239.08C1682.35 239.656 1681.39 240.76 1680.81 242.392C1680.33 244.024 1680.09 246.664 1680.09 250.312V321.736C1680.09 325.384 1680.33 328.024 1680.81 329.656C1681.39 331.288 1682.35 332.392 1683.69 332.968C1685.04 333.544 1687.25 333.928 1690.32 334.12V337C1684.85 336.712 1676.3 336.568 1664.69 336.568C1654.32 336.568 1646.3 336.712 1640.64 337V334.12C1643.71 333.928 1645.92 333.544 1647.26 332.968C1648.61 332.392 1649.52 331.288 1650 329.656C1650.57 328.024 1650.86 325.384 1650.86 321.736V255.496L1615.58 324.04C1615.68 326.824 1616.01 328.936 1616.59 330.376C1617.17 331.72 1618.13 332.632 1619.47 333.112C1620.91 333.592 1623.02 333.928 1625.81 334.12V337C1620.24 336.712 1612.22 336.568 1601.76 336.568C1590.14 336.568 1581.6 336.712 1576.13 337V334.12C1579.2 333.928 1581.41 333.544 1582.75 332.968C1584.09 332.392 1585.01 331.288 1585.49 329.656C1586.06 328.024 1586.35 325.384 1586.35 321.736V250.312C1586.35 246.664 1586.06 244.024 1585.49 242.392C1585.01 240.76 1584.09 239.656 1582.75 239.08C1581.41 238.504 1579.2 238.12 1576.13 237.928V235.048C1581.6 235.336 1590.14 235.48 1601.76 235.48C1612.13 235.48 1620.14 235.336 1625.81 235.048V237.928C1622.73 238.12 1620.53 238.504 1619.18 239.08C1617.84 239.656 1616.88 240.76 1616.3 242.392C1615.82 244.024 1615.58 246.664 1615.58 250.312V316.84L1650.86 248.44C1650.77 245.464 1650.43 243.304 1649.85 241.96C1649.28 240.52 1648.32 239.56 1646.97 239.08C1645.63 238.504 1643.52 238.12 1640.64 237.928V235.048C1646.21 235.336 1654.22 235.48 1664.69 235.48C1676.3 235.48 1684.85 235.336 1690.32 235.048V237.928ZM1831.02 237.928C1827.95 238.12 1825.74 238.504 1824.4 239.08C1823.05 239.656 1822.09 240.76 1821.52 242.392C1821.04 244.024 1820.8 246.664 1820.8 250.312V321.736C1820.8 325.384 1821.04 328.024 1821.52 329.656C1822.09 331.288 1823.05 332.392 1824.4 332.968C1825.74 333.544 1827.95 333.928 1831.02 334.12V337C1825.55 336.712 1817 336.568 1805.39 336.568C1795.02 336.568 1787 336.712 1781.34 337V334.12C1784.41 333.928 1786.62 333.544 1787.96 332.968C1789.31 332.392 1790.22 331.288 1790.7 329.656C1791.28 328.024 1791.56 325.384 1791.56 321.736V255.496L1756.28 324.04C1756.38 326.824 1756.72 328.936 1757.29 330.376C1757.87 331.72 1758.83 332.632 1760.17 333.112C1761.61 333.592 1763.72 333.928 1766.51 334.12V337C1760.94 336.712 1752.92 336.568 1742.46 336.568C1730.84 336.568 1722.3 336.712 1716.83 337V334.12C1719.9 333.928 1722.11 333.544 1723.45 332.968C1724.8 332.392 1725.71 331.288 1726.19 329.656C1726.76 328.024 1727.05 325.384 1727.05 321.736V250.312C1727.05 246.664 1726.76 244.024 1726.19 242.392C1725.71 240.76 1724.8 239.656 1723.45 239.08C1722.11 238.504 1719.9 238.12 1716.83 237.928V235.048C1722.3 235.336 1730.84 235.48 1742.46 235.48C1752.83 235.48 1760.84 235.336 1766.51 235.048V237.928C1763.44 238.12 1761.23 238.504 1759.88 239.08C1758.54 239.656 1757.58 240.76 1757 242.392C1756.52 244.024 1756.28 246.664 1756.28 250.312V316.84L1791.56 248.44C1791.47 245.464 1791.13 243.304 1790.56 241.96C1789.98 240.52 1789.02 239.56 1787.68 239.08C1786.33 238.504 1784.22 238.12 1781.34 237.928V235.048C1786.91 235.336 1794.92 235.48 1805.39 235.48C1817 235.48 1825.55 235.336 1831.02 235.048V237.928ZM1797.04 200.632C1801.07 200.632 1804.38 201.688 1806.97 203.8C1809.66 205.816 1811 208.312 1811 211.288C1811 213.688 1810.09 215.848 1808.27 217.768C1806.54 219.592 1804.19 221.176 1801.21 222.52C1798.14 223.96 1794.25 225.112 1789.55 225.976C1784.84 226.84 1779.66 227.272 1774 227.272C1768.33 227.272 1763.15 226.84 1758.44 225.976C1753.74 225.112 1749.8 223.96 1746.64 222.52C1743.76 221.272 1741.45 219.688 1739.72 217.768C1738 215.848 1737.13 213.688 1737.13 211.288C1737.13 208.312 1738.43 205.816 1741.02 203.8C1743.61 201.688 1746.92 200.632 1750.96 200.632C1754.99 200.632 1758.35 201.688 1761.04 203.8C1763.72 205.816 1765.07 208.408 1765.07 211.576C1765.07 214.264 1764.06 216.52 1762.04 218.344C1760.03 220.168 1757.48 221.464 1754.41 222.232C1760.56 223.672 1767.08 224.392 1774 224.392C1780.91 224.392 1787.39 223.624 1793.44 222.088C1790.27 221.224 1787.72 219.928 1785.8 218.2C1783.98 216.376 1783.07 214.168 1783.07 211.576C1783.07 208.408 1784.36 205.816 1786.96 203.8C1789.64 201.688 1793 200.632 1797.04 200.632ZM537.674 484.576C547.082 485.056 554.81 486.544 560.858 489.04C567.002 491.536 571.466 494.656 574.25 498.4C577.034 502.048 578.426 505.936 578.426 510.064C578.426 519.472 574.682 526.48 567.194 531.088C559.706 535.696 549.05 538 535.226 538C532.442 538 530.09 537.952 528.17 537.856C521.642 537.664 515.258 537.568 509.018 537.568C497.786 537.568 489.434 537.712 483.962 538V535.12C487.034 534.928 489.242 534.544 490.586 533.968C492.026 533.392 492.986 532.288 493.466 530.656C493.946 529.024 494.186 526.384 494.186 522.736V451.312C494.186 447.664 493.898 445.024 493.322 443.392C492.842 441.76 491.93 440.656 490.586 440.08C489.242 439.504 487.034 439.12 483.962 438.928V436.048C489.434 436.336 497.69 436.48 508.73 436.48L525.29 436.336C527.21 436.24 529.418 436.192 531.914 436.192C544.586 436.192 554.234 438.256 560.858 442.384C567.578 446.416 570.938 451.888 570.938 458.8C570.938 462.352 569.69 465.952 567.194 469.6C564.698 473.152 560.954 476.272 555.962 478.96C550.97 481.648 544.874 483.424 537.674 484.288V484.576ZM531.194 438.928C528.986 438.928 527.306 439.264 526.154 439.936C525.098 440.608 524.378 441.808 523.994 443.536C523.61 445.264 523.418 447.856 523.418 451.312V483.856H527.306C532.49 483.856 536.09 481.744 538.106 477.52C540.218 473.2 541.274 467.488 541.274 460.384C541.274 453.088 540.458 447.712 538.826 444.256C537.29 440.704 534.746 438.928 531.194 438.928ZM532.778 534.688C543.05 534.688 548.186 526.288 548.186 509.488C548.186 501.904 546.362 496.144 542.714 492.208C539.066 488.272 533.306 486.304 525.434 486.304H523.418V522.736C523.418 526.192 523.658 528.736 524.138 530.368C524.618 532 525.482 533.152 526.73 533.824C528.074 534.4 530.09 534.688 532.778 534.688ZM785.311 438.928C782.239 439.12 779.983 439.504 778.543 440.08C777.199 440.656 776.287 441.76 775.807 443.392C775.327 445.024 775.087 447.664 775.087 451.312V522.736C775.087 526.384 775.327 529.024 775.807 530.656C776.383 532.288 777.343 533.392 778.687 533.968C780.031 534.544 782.239 534.928 785.311 535.12V538C779.455 537.712 770.959 537.568 759.823 537.568C748.207 537.568 739.663 537.712 734.191 538V535.12C737.647 534.928 740.143 534.544 741.679 533.968C743.311 533.392 744.415 532.288 744.991 530.656C745.567 529.024 745.855 526.384 745.855 522.736V449.152L711.151 537.856H708.847L668.239 445.408V509.776C668.239 516.88 668.527 522.016 669.103 525.184C669.679 528.256 670.927 530.512 672.847 531.952C674.863 533.392 678.175 534.448 682.783 535.12V538C678.847 537.712 673.471 537.568 666.655 537.568C661.567 537.568 657.583 537.712 654.703 538V535.12C657.679 534.448 659.887 533.44 661.327 532.096C662.767 530.656 663.727 528.496 664.207 525.616C664.687 522.736 664.927 518.416 664.927 512.656V451.312C664.927 447.664 664.639 445.024 664.063 443.392C663.583 441.76 662.671 440.656 661.327 440.08C659.983 439.504 657.775 439.12 654.703 438.928V436.048C657.583 436.336 661.567 436.48 666.655 436.48C678.175 436.48 688.111 436.336 696.463 436.048L723.679 497.248L747.295 436.48H759.823C770.959 436.48 779.455 436.336 785.311 436.048V438.928ZM866.311 434.032C877.159 434.032 886.663 436.096 894.823 440.224C902.983 444.352 909.319 450.352 913.831 458.224C918.343 466 920.599 475.312 920.599 486.16C920.599 496.72 918.295 506.08 913.687 514.24C909.079 522.4 902.647 528.736 894.391 533.248C886.135 537.76 876.727 540.016 866.167 540.016C855.319 540.016 845.815 537.952 837.655 533.824C829.495 529.696 823.159 523.744 818.647 515.968C814.135 508.096 811.879 498.736 811.879 487.888C811.879 477.328 814.183 467.968 818.791 459.808C823.399 451.648 829.831 445.312 838.087 440.8C846.343 436.288 855.751 434.032 866.311 434.032ZM865.735 436.624C861.031 436.624 856.855 438.784 853.207 443.104C849.655 447.328 846.919 453.28 844.999 460.96C843.079 468.64 842.119 477.424 842.119 487.312C842.119 497.296 843.223 506.08 845.431 513.664C847.639 521.248 850.615 527.104 854.359 531.232C858.103 535.36 862.231 537.424 866.743 537.424C871.447 537.424 875.575 535.312 879.127 531.088C882.775 526.768 885.559 520.768 887.479 513.088C889.399 505.408 890.359 496.624 890.359 486.736C890.359 476.752 889.255 467.968 887.047 460.384C884.839 452.8 881.863 446.944 878.119 442.816C874.375 438.688 870.247 436.624 865.735 436.624ZM1003.92 434.032C1009.68 434.032 1014.58 434.848 1018.61 436.48C1022.64 438.112 1026.58 440.416 1030.42 443.392C1031.38 444.256 1032.29 444.688 1033.15 444.688C1035.07 444.688 1036.32 441.808 1036.9 436.048H1040.21C1039.82 442.864 1039.63 454.864 1039.63 472.048H1036.32C1035.65 464.368 1034.4 458.32 1032.58 453.904C1030.75 449.488 1027.58 445.792 1023.07 442.816C1018.56 439.936 1014.1 438.496 1009.68 438.496C999.697 438.496 992.689 443.296 988.657 452.896C984.625 462.496 982.609 473.968 982.609 487.312C982.609 500.656 984.625 512.128 988.657 521.728C992.689 531.328 999.697 536.128 1009.68 536.128C1014.1 536.128 1018.56 534.688 1023.07 531.808C1027.58 529.024 1030.75 525.28 1032.58 520.576C1034.4 515.872 1035.65 509.2 1036.32 500.56H1039.63C1039.63 518.512 1039.82 530.992 1040.21 538H1036.9C1036.61 534.928 1036.18 532.768 1035.6 531.52C1035.12 530.176 1034.4 529.504 1033.44 529.504C1032.67 529.504 1031.66 529.888 1030.42 530.656C1026.1 533.728 1021.97 536.08 1018.03 537.712C1014.1 539.248 1009.34 540.016 1003.78 540.016C992.929 540.016 983.425 537.952 975.265 533.824C967.105 529.696 960.769 523.744 956.257 515.968C951.745 508.096 949.489 498.736 949.489 487.888C949.489 477.328 951.793 467.968 956.401 459.808C961.009 451.648 967.441 445.312 975.697 440.8C983.953 436.288 993.361 434.032 1003.92 434.032ZM1173.45 532.24C1170.57 535.12 1167.4 537.136 1163.94 538.288C1160.49 539.44 1156.46 540.016 1151.85 540.016C1145.13 540.016 1139.94 538.864 1136.3 536.56C1132.74 534.16 1130.54 530.128 1129.67 524.464L1125.93 499.696C1125.06 494.608 1123.43 491.104 1121.03 489.184C1118.73 487.168 1114.89 486.016 1109.51 485.728V522.736C1109.51 526.384 1109.75 529.024 1110.23 530.656C1110.81 532.288 1111.77 533.392 1113.11 533.968C1114.46 534.544 1116.66 534.928 1119.74 535.12V538C1114.17 537.712 1106.15 537.568 1095.69 537.568C1084.07 537.568 1075.53 537.712 1070.06 538V535.12C1073.13 534.928 1075.34 534.544 1076.68 533.968C1078.12 533.392 1079.08 532.288 1079.56 530.656C1080.04 529.024 1080.28 526.384 1080.28 522.736V451.312C1080.28 447.664 1079.99 445.024 1079.42 443.392C1078.94 441.76 1078.02 440.656 1076.68 440.08C1075.34 439.504 1073.13 439.12 1070.06 438.928V436.048C1075.53 436.336 1084.07 436.48 1095.69 436.48C1106.06 436.48 1114.07 436.336 1119.74 436.048V438.928C1116.66 439.12 1114.41 439.504 1112.97 440.08C1111.62 440.656 1110.71 441.76 1110.23 443.392C1109.75 445.024 1109.51 447.664 1109.51 451.312V483.424C1113.45 483.136 1117.24 481.744 1120.89 479.248C1124.54 476.752 1128.95 472.576 1134.14 466.72L1139.03 461.248C1143.26 456.448 1145.37 452.128 1145.37 448.288C1145.37 445.504 1144.26 443.296 1142.06 441.664C1139.85 439.936 1137.02 438.976 1133.56 438.784V436.048C1141.62 436.336 1149.74 436.48 1157.9 436.48C1163.75 436.48 1168.6 436.336 1172.44 436.048V438.784C1164.38 440.896 1156.5 446.176 1148.82 454.624L1122.47 483.712C1132.94 484.384 1140.86 486.16 1146.23 489.04C1151.7 491.92 1155.11 496.528 1156.46 502.864L1160.63 522.88C1161.3 526.432 1162.12 528.88 1163.08 530.224C1164.14 531.568 1165.53 532.24 1167.26 532.24C1168.89 532.24 1170.33 531.616 1171.58 530.368L1173.45 532.24ZM1250.27 484.576C1259.68 485.056 1267.4 486.544 1273.45 489.04C1279.6 491.536 1284.06 494.656 1286.84 498.4C1289.63 502.048 1291.02 505.936 1291.02 510.064C1291.02 519.472 1287.28 526.48 1279.79 531.088C1272.3 535.696 1261.64 538 1247.82 538C1245.04 538 1242.68 537.952 1240.76 537.856C1234.24 537.664 1227.85 537.568 1221.61 537.568C1210.38 537.568 1202.03 537.712 1196.56 538V535.12C1199.63 534.928 1201.84 534.544 1203.18 533.968C1204.62 533.392 1205.58 532.288 1206.06 530.656C1206.54 529.024 1206.78 526.384 1206.78 522.736V451.312C1206.78 447.664 1206.49 445.024 1205.92 443.392C1205.44 441.76 1204.52 440.656 1203.18 440.08C1201.84 439.504 1199.63 439.12 1196.56 438.928V436.048C1202.03 436.336 1210.28 436.48 1221.32 436.48L1237.88 436.336C1239.8 436.24 1242.01 436.192 1244.51 436.192C1257.18 436.192 1266.83 438.256 1273.45 442.384C1280.17 446.416 1283.53 451.888 1283.53 458.8C1283.53 462.352 1282.28 465.952 1279.79 469.6C1277.29 473.152 1273.55 476.272 1268.56 478.96C1263.56 481.648 1257.47 483.424 1250.27 484.288V484.576ZM1243.79 438.928C1241.58 438.928 1239.9 439.264 1238.75 439.936C1237.69 440.608 1236.97 441.808 1236.59 443.536C1236.2 445.264 1236.01 447.856 1236.01 451.312V483.856H1239.9C1245.08 483.856 1248.68 481.744 1250.7 477.52C1252.81 473.2 1253.87 467.488 1253.87 460.384C1253.87 453.088 1253.05 447.712 1251.42 444.256C1249.88 440.704 1247.34 438.928 1243.79 438.928ZM1245.37 534.688C1255.64 534.688 1260.78 526.288 1260.78 509.488C1260.78 501.904 1258.96 496.144 1255.31 492.208C1251.66 488.272 1245.9 486.304 1238.03 486.304H1236.01V522.736C1236.01 526.192 1236.25 528.736 1236.73 530.368C1237.21 532 1238.08 533.152 1239.32 533.824C1240.67 534.4 1242.68 534.688 1245.37 534.688ZM1398.81 513.808C1398.81 523.6 1399.15 531.664 1399.82 538C1393.29 537.712 1382.3 537.568 1366.85 537.568C1344.38 537.568 1327.58 537.712 1316.45 538V535.12C1319.52 534.928 1321.73 534.544 1323.07 533.968C1324.51 533.392 1325.47 532.288 1325.95 530.656C1326.43 529.024 1326.67 526.384 1326.67 522.736V451.312C1326.67 447.664 1326.38 445.024 1325.81 443.392C1325.33 441.76 1324.41 440.656 1323.07 440.08C1321.73 439.504 1319.52 439.12 1316.45 438.928V436.048C1327.58 436.336 1344.38 436.48 1366.85 436.48C1380.96 436.48 1390.99 436.336 1396.94 436.048C1396.27 445.072 1395.93 453.136 1395.93 460.24C1395.93 464.656 1396.08 468.112 1396.37 470.608H1393.05C1391.33 459.472 1388.11 451.504 1383.41 446.704C1378.7 441.808 1373.09 439.36 1366.56 439.36H1364.69C1362.09 439.36 1360.17 439.6 1358.93 440.08C1357.77 440.464 1356.96 441.28 1356.48 442.528C1356.09 443.68 1355.9 445.648 1355.9 448.432V485.296H1357.34C1362.33 485.296 1366.61 483.328 1370.16 479.392C1373.71 475.456 1375.97 471.088 1376.93 466.288H1380.24C1379.95 470.32 1379.81 474.832 1379.81 479.824V486.736C1379.81 491.632 1380.09 498.448 1380.67 507.184H1377.36C1376.49 501.712 1374.24 497.2 1370.59 493.648C1367.04 490 1362.62 488.176 1357.34 488.176H1355.9V525.616C1355.9 528.4 1356.09 530.416 1356.48 531.664C1356.96 532.816 1357.77 533.632 1358.93 534.112C1360.17 534.496 1362.09 534.688 1364.69 534.688H1369.44C1375.01 534.688 1380.29 532 1385.28 526.624C1390.27 521.152 1393.82 512.464 1395.93 500.56H1399.25C1398.96 504.016 1398.81 508.432 1398.81 513.808Z" fill="black"/>
</svg>
