<svg width="1055" height="662" viewBox="0 0 1055 662" fill="none" xmlns="http://www.w3.org/2000/svg">
<g filter="url(#filter0_d)">
<path d="M121.805 138H94.1738V26.6504H40.6562V138H13.1172V4.34375H121.805V138ZM191.078 90.9082V138H163.539V4.34375H215.68C225.716 4.34375 234.529 6.17969 242.117 9.85156C249.767 13.5234 255.642 18.7559 259.742 25.5488C263.842 32.2806 265.893 39.9609 265.893 48.5898C265.893 61.6862 261.395 72.0286 252.398 79.6172C243.464 87.1445 231.071 90.9082 215.221 90.9082H191.078ZM191.078 68.6016H215.68C222.962 68.6016 228.501 66.888 232.295 63.4609C236.15 60.0339 238.078 55.138 238.078 48.7734C238.078 42.2253 236.15 36.9316 232.295 32.8926C228.439 28.8535 223.115 26.7728 216.322 26.6504H191.078V68.6016ZM382.809 80.0762H329.934V115.877H391.988V138H302.395V4.34375H391.805V26.6504H329.934V58.5039H382.809V80.0762ZM461.629 4.34375L495.961 101.281L530.109 4.34375H566.277V138H538.646V101.465L541.4 38.4004L505.324 138H486.414L450.43 38.4922L453.184 101.465V138H425.645V4.34375H461.629ZM687.967 4.34375H715.598V138H687.967V49.2324L634.449 138H606.91V4.34375H634.449V93.2949L687.967 4.34375ZM807.086 67.5L831.412 4.34375H861.154L814.43 114.592L810.666 121.844C803.751 133.9 793.163 139.928 778.904 139.928L769.266 139.561L768.99 117.438C770.459 117.682 772.846 117.805 776.15 117.805C780.006 117.805 783.096 117.132 785.422 115.785C787.809 114.439 789.798 111.96 791.389 108.35L794.785 99.6289L747.877 4.34375H777.527L807.086 67.5ZM929.234 4.34375L963.566 101.281L997.715 4.34375H1033.88V138H1006.25V101.465L1009.01 38.4004L972.93 138H954.02L918.035 38.4922L920.789 101.465V138H893.25V4.34375H929.234ZM351.66 259.344V393H324.029V281.65H288.412L286.209 328.834C285.291 344.745 283.271 357.291 280.15 366.471C277.029 375.589 272.47 382.29 266.473 386.574C260.475 390.797 252.275 392.939 241.871 393H234.711V370.877L239.301 370.418C246.216 369.5 251.143 365.522 254.08 358.484C257.079 351.385 258.976 338.779 259.771 320.664L262.066 259.344H351.66ZM503 329.201C503 342.359 500.674 353.895 496.023 363.809C491.372 373.723 484.702 381.372 476.012 386.758C467.383 392.143 457.469 394.836 446.27 394.836C435.193 394.836 425.309 392.174 416.619 386.85C407.929 381.525 401.197 373.937 396.424 364.084C391.65 354.17 389.233 342.787 389.172 329.936V323.326C389.172 310.169 391.528 298.602 396.24 288.627C401.014 278.59 407.715 270.91 416.344 265.586C425.034 260.201 434.948 257.508 446.086 257.508C457.224 257.508 467.107 260.201 475.736 265.586C484.426 270.91 491.128 278.59 495.84 288.627C500.613 298.602 503 310.138 503 323.234V329.201ZM475.094 323.143C475.094 309.128 472.585 298.48 467.566 291.197C462.548 283.915 455.388 280.273 446.086 280.273C436.845 280.273 429.715 283.884 424.697 291.105C419.679 298.266 417.139 308.792 417.078 322.684V329.201C417.078 342.848 419.587 353.436 424.605 360.963C429.624 368.49 436.845 372.254 446.27 372.254C455.51 372.254 462.609 368.643 467.566 361.422C472.523 354.139 475.033 343.552 475.094 329.66V323.143ZM618.998 271.277H620.65C631.115 271.277 640.57 273.603 649.016 278.254C657.522 282.844 664.132 289.392 668.844 297.898C673.556 306.405 675.912 316.074 675.912 326.906C675.912 342.94 670.771 356.036 660.49 366.195C650.27 376.354 636.439 381.434 618.998 381.434V398.508H592.469V381.434H590.725C580.137 381.434 570.59 379.169 562.084 374.641C553.577 370.051 546.968 363.625 542.256 355.363C537.605 347.102 535.279 337.677 535.279 327.09C535.279 316.38 537.605 306.803 542.256 298.357C546.907 289.912 553.424 283.333 561.809 278.621C570.193 273.848 579.556 271.4 589.898 271.277H592.469V253.836H618.998V271.277ZM590.725 294.135C581.606 294.135 574.415 297.011 569.152 302.764C563.951 308.516 561.35 316.625 561.35 327.09C561.35 336.882 563.951 344.592 569.152 350.223C574.354 355.792 581.667 358.576 591.092 358.576H592.469V294.135H590.725ZM618.998 294.135V358.576H620.834C629.83 358.576 636.898 355.761 642.039 350.131C647.241 344.439 649.842 336.698 649.842 326.906C649.842 316.686 647.302 308.669 642.223 302.855C637.143 297.042 629.861 294.135 620.375 294.135H618.998ZM812.105 281.65H771.164V393H743.625V281.65H703.234V259.344H812.105V281.65ZM8.31445 648V514.344H55.1309C71.3483 514.344 83.6491 517.465 92.0332 523.707C100.417 529.888 104.609 538.976 104.609 550.971C104.609 557.519 102.926 563.302 99.5605 568.32C96.1947 573.277 91.513 576.919 85.5156 579.244C92.3698 580.958 97.7552 584.415 101.672 589.617C105.65 594.819 107.639 601.184 107.639 608.711C107.639 621.562 103.538 631.293 95.3379 637.902C87.1374 644.512 75.4486 647.878 60.2715 648H8.31445ZM35.8535 589.801V625.877H59.4453C65.9323 625.877 70.9811 624.347 74.5918 621.287C78.2637 618.166 80.0996 613.882 80.0996 608.436C80.0996 596.196 73.7656 589.984 61.0977 589.801H35.8535ZM35.8535 570.34H56.2324C70.1243 570.095 77.0703 564.557 77.0703 553.725C77.0703 547.666 75.2956 543.321 71.7461 540.689C68.2578 537.997 62.7194 536.65 55.1309 536.65H35.8535V570.34ZM246.186 514.344L280.518 611.281L314.666 514.344H350.834V648H323.203V611.465L325.957 548.4L289.881 648H270.971L234.986 548.492L237.74 611.465V648H210.201V514.344H246.186ZM502.174 584.201C502.174 597.359 499.848 608.895 495.197 618.809C490.546 628.723 483.876 636.372 475.186 641.758C466.557 647.143 456.643 649.836 445.443 649.836C434.367 649.836 424.483 647.174 415.793 641.85C407.103 636.525 400.371 628.937 395.598 619.084C390.824 609.17 388.407 597.787 388.346 584.936V578.326C388.346 565.169 390.702 553.602 395.414 543.627C400.188 533.59 406.889 525.91 415.518 520.586C424.208 515.201 434.122 512.508 445.26 512.508C456.398 512.508 466.281 515.201 474.91 520.586C483.6 525.91 490.301 533.59 495.014 543.627C499.787 553.602 502.174 565.138 502.174 578.234V584.201ZM474.268 578.143C474.268 564.128 471.758 553.48 466.74 546.197C461.722 538.915 454.562 535.273 445.26 535.273C436.019 535.273 428.889 538.884 423.871 546.105C418.853 553.266 416.313 563.792 416.252 577.684V584.201C416.252 597.848 418.761 608.436 423.779 615.963C428.798 623.49 436.019 627.254 445.443 627.254C454.684 627.254 461.783 623.643 466.74 616.422C471.697 609.139 474.206 598.552 474.268 584.66V578.143ZM644.609 603.479C643.569 617.86 638.245 629.182 628.637 637.443C619.09 645.705 606.483 649.836 590.816 649.836C573.681 649.836 560.187 644.083 550.334 632.578C540.542 621.012 535.646 605.161 535.646 585.027V576.857C535.646 564.006 537.911 552.684 542.439 542.893C546.968 533.101 553.424 525.604 561.809 520.402C570.254 515.139 580.046 512.508 591.184 512.508C606.605 512.508 619.029 516.639 628.453 524.9C637.878 533.162 643.324 544.759 644.793 559.691H617.254C616.581 551.062 614.163 544.82 610.002 540.965C605.902 537.048 599.629 535.09 591.184 535.09C582.004 535.09 575.119 538.395 570.529 545.004C566.001 551.552 563.675 561.742 563.553 575.572V585.67C563.553 600.113 565.725 610.669 570.07 617.34C574.477 624.01 581.392 627.346 590.816 627.346C599.323 627.346 605.657 625.418 609.818 621.562C614.041 617.646 616.458 611.618 617.07 603.479H644.609ZM723.797 593.381H707.916V648H680.377V514.344H707.916V567.861H720.492L753.172 514.344H786.77L745.553 577.592L791.084 648H758.221L723.797 593.381ZM819.232 648V514.344H866.049C882.266 514.344 894.567 517.465 902.951 523.707C911.335 529.888 915.527 538.976 915.527 550.971C915.527 557.519 913.844 563.302 910.479 568.32C907.113 573.277 902.431 576.919 896.434 579.244C903.288 580.958 908.673 584.415 912.59 589.617C916.568 594.819 918.557 601.184 918.557 608.711C918.557 621.562 914.456 631.293 906.256 637.902C898.055 644.512 886.367 647.878 871.189 648H819.232ZM846.771 589.801V625.877H870.363C876.85 625.877 881.899 624.347 885.51 621.287C889.182 618.166 891.018 613.882 891.018 608.436C891.018 596.196 884.684 589.984 872.016 589.801H846.771ZM846.771 570.34H867.15C881.042 570.095 887.988 564.557 887.988 553.725C887.988 547.666 886.214 543.321 882.664 540.689C879.176 537.997 873.637 536.65 866.049 536.65H846.771V570.34ZM1037.22 590.076H984.342V625.877H1046.4V648H956.803V514.344H1046.21V536.65H984.342V568.504H1037.22V590.076Z" fill="black"/>
<path d="M121.805 138V142H125.805V138H121.805ZM94.1738 138H90.1738V142H94.1738V138ZM94.1738 26.6504H98.1738V22.6504H94.1738V26.6504ZM40.6562 26.6504V22.6504H36.6562V26.6504H40.6562ZM40.6562 138V142H44.6562V138H40.6562ZM13.1172 138H9.11719V142H13.1172V138ZM13.1172 4.34375V0.34375H9.11719V4.34375H13.1172ZM121.805 4.34375H125.805V0.34375H121.805V4.34375ZM121.805 134H94.1738V142H121.805V134ZM98.1738 138V26.6504H90.1738V138H98.1738ZM94.1738 22.6504H40.6562V30.6504H94.1738V22.6504ZM36.6562 26.6504V138H44.6562V26.6504H36.6562ZM40.6562 134H13.1172V142H40.6562V134ZM17.1172 138V4.34375H9.11719V138H17.1172ZM13.1172 8.34375H121.805V0.34375H13.1172V8.34375ZM117.805 4.34375V138H125.805V4.34375H117.805ZM191.078 90.9082V86.9082H187.078V90.9082H191.078ZM191.078 138V142H195.078V138H191.078ZM163.539 138H159.539V142H163.539V138ZM163.539 4.34375V0.34375H159.539V4.34375H163.539ZM242.117 9.85156L240.375 13.4522L240.386 13.4577L242.117 9.85156ZM259.742 25.5488L256.318 27.6159L256.322 27.6227L256.326 27.6296L259.742 25.5488ZM252.398 79.6172L254.976 82.6763L254.978 82.6747L252.398 79.6172ZM191.078 68.6016H187.078V72.6016H191.078V68.6016ZM232.295 63.4609L229.637 60.4713L229.626 60.4819L229.614 60.4925L232.295 63.4609ZM216.322 26.6504L216.394 22.651L216.358 22.6504H216.322V26.6504ZM191.078 26.6504V22.6504H187.078V26.6504H191.078ZM187.078 90.9082V138H195.078V90.9082H187.078ZM191.078 134H163.539V142H191.078V134ZM167.539 138V4.34375H159.539V138H167.539ZM163.539 8.34375H215.68V0.34375H163.539V8.34375ZM215.68 8.34375C225.227 8.34375 233.424 10.0886 240.375 13.4522L243.859 6.25093C235.634 2.27078 226.206 0.34375 215.68 0.34375V8.34375ZM240.386 13.4577C247.385 16.8169 252.648 21.5368 256.318 27.6159L263.167 23.4818C258.636 15.9749 252.149 10.23 243.848 6.24547L240.386 13.4577ZM256.326 27.6296C260.009 33.6758 261.893 40.6231 261.893 48.5898H269.893C269.893 39.2988 267.676 30.8854 263.158 23.4681L256.326 27.6296ZM261.893 48.5898C261.893 60.6572 257.806 69.8227 249.819 76.5597L254.978 82.6747C264.983 74.2346 269.893 62.7152 269.893 48.5898H261.893ZM249.821 76.5581C241.829 83.2912 230.465 86.9082 215.221 86.9082V94.9082C231.677 94.9082 245.098 90.9978 254.976 82.6763L249.821 76.5581ZM215.221 86.9082H191.078V94.9082H215.221V86.9082ZM191.078 72.6016H215.68V64.6016H191.078V72.6016ZM215.68 72.6016C223.535 72.6016 230.187 70.7553 234.976 66.4293L229.614 60.4925C226.815 63.0207 222.389 64.6016 215.68 64.6016V72.6016ZM234.952 66.4506C239.856 62.0916 242.078 55.9917 242.078 48.7734H234.078C234.078 54.2843 232.445 57.9761 229.637 60.4713L234.952 66.4506ZM242.078 48.7734C242.078 41.3867 239.875 35.0409 235.188 30.1307L229.401 35.6545C232.425 38.8224 234.078 43.0638 234.078 48.7734H242.078ZM235.188 30.1307C230.441 25.1569 224.008 22.7882 216.394 22.651L216.25 30.6497C222.222 30.7573 226.438 32.5501 229.401 35.6545L235.188 30.1307ZM216.322 22.6504H191.078V30.6504H216.322V22.6504ZM187.078 26.6504V68.6016H195.078V26.6504H187.078ZM382.809 80.0762V84.0762H386.809V80.0762H382.809ZM329.934 80.0762V76.0762H325.934V80.0762H329.934ZM329.934 115.877H325.934V119.877H329.934V115.877ZM391.988 115.877H395.988V111.877H391.988V115.877ZM391.988 138V142H395.988V138H391.988ZM302.395 138H298.395V142H302.395V138ZM302.395 4.34375V0.34375H298.395V4.34375H302.395ZM391.805 4.34375H395.805V0.34375H391.805V4.34375ZM391.805 26.6504V30.6504H395.805V26.6504H391.805ZM329.934 26.6504V22.6504H325.934V26.6504H329.934ZM329.934 58.5039H325.934V62.5039H329.934V58.5039ZM382.809 58.5039H386.809V54.5039H382.809V58.5039ZM382.809 76.0762H329.934V84.0762H382.809V76.0762ZM325.934 80.0762V115.877H333.934V80.0762H325.934ZM329.934 119.877H391.988V111.877H329.934V119.877ZM387.988 115.877V138H395.988V115.877H387.988ZM391.988 134H302.395V142H391.988V134ZM306.395 138V4.34375H298.395V138H306.395ZM302.395 8.34375H391.805V0.34375H302.395V8.34375ZM387.805 4.34375V26.6504H395.805V4.34375H387.805ZM391.805 22.6504H329.934V30.6504H391.805V22.6504ZM325.934 26.6504V58.5039H333.934V26.6504H325.934ZM329.934 62.5039H382.809V54.5039H329.934V62.5039ZM378.809 58.5039V80.0762H386.809V58.5039H378.809ZM461.629 4.34375L465.399 3.00836L464.456 0.34375H461.629V4.34375ZM495.961 101.281L492.19 102.617L495.971 113.291L499.734 102.61L495.961 101.281ZM530.109 4.34375V0.34375H527.278L526.337 3.01471L530.109 4.34375ZM566.277 4.34375H570.277V0.34375H566.277V4.34375ZM566.277 138V142H570.277V138H566.277ZM538.646 138H534.646V142H538.646V138ZM538.646 101.465L534.65 101.29L534.646 101.378V101.465H538.646ZM541.4 38.4004L545.397 38.5749L537.639 37.0382L541.4 38.4004ZM505.324 138V142H508.13L509.085 139.362L505.324 138ZM486.414 138L482.652 139.36L483.607 142H486.414V138ZM450.43 38.4922L454.191 37.1319L446.434 38.6669L450.43 38.4922ZM453.184 101.465H457.184V101.377L457.18 101.29L453.184 101.465ZM453.184 138V142H457.184V138H453.184ZM425.645 138H421.645V142H425.645V138ZM425.645 4.34375V0.34375H421.645V4.34375H425.645ZM457.858 5.67914L492.19 102.617L499.731 99.9459L465.399 3.00836L457.858 5.67914ZM499.734 102.61L533.882 5.67279L526.337 3.01471L492.188 99.9522L499.734 102.61ZM530.109 8.34375H566.277V0.34375H530.109V8.34375ZM562.277 4.34375V138H570.277V4.34375H562.277ZM566.277 134H538.646V142H566.277V134ZM542.646 138V101.465H534.646V138H542.646ZM542.643 101.639L545.397 38.5749L537.404 38.2259L534.65 101.29L542.643 101.639ZM537.639 37.0382L501.563 136.638L509.085 139.362L545.161 39.7626L537.639 37.0382ZM505.324 134H486.414V142H505.324V134ZM490.176 136.64L454.191 37.1319L446.668 39.8525L482.652 139.36L490.176 136.64ZM446.434 38.6669L449.187 101.64L457.18 101.29L454.426 38.3174L446.434 38.6669ZM449.184 101.465V138H457.184V101.465H449.184ZM453.184 134H425.645V142H453.184V134ZM429.645 138V4.34375H421.645V138H429.645ZM425.645 8.34375H461.629V0.34375H425.645V8.34375ZM687.967 4.34375V0.34375H685.705L684.539 2.28161L687.967 4.34375ZM715.598 4.34375H719.598V0.34375H715.598V4.34375ZM715.598 138V142H719.598V138H715.598ZM687.967 138H683.967V142H687.967V138ZM687.967 49.2324H691.967V34.8506L684.541 47.1672L687.967 49.2324ZM634.449 138V142H636.708L637.875 140.065L634.449 138ZM606.91 138H602.91V142H606.91V138ZM606.91 4.34375V0.34375H602.91V4.34375H606.91ZM634.449 4.34375H638.449V0.34375H634.449V4.34375ZM634.449 93.2949H630.449V107.702L637.877 95.3571L634.449 93.2949ZM687.967 8.34375H715.598V0.34375H687.967V8.34375ZM711.598 4.34375V138H719.598V4.34375H711.598ZM715.598 134H687.967V142H715.598V134ZM691.967 138V49.2324H683.967V138H691.967ZM684.541 47.1672L631.024 135.935L637.875 140.065L691.392 51.2977L684.541 47.1672ZM634.449 134H606.91V142H634.449V134ZM610.91 138V4.34375H602.91V138H610.91ZM606.91 8.34375H634.449V0.34375H606.91V8.34375ZM630.449 4.34375V93.2949H638.449V4.34375H630.449ZM637.877 95.3571L691.394 6.40589L684.539 2.28161L631.022 91.2328L637.877 95.3571ZM807.086 67.5L803.463 69.1956L807.444 77.7003L810.819 68.9377L807.086 67.5ZM831.412 4.34375V0.34375H828.666L827.679 2.90602L831.412 4.34375ZM861.154 4.34375L864.837 5.90461L867.194 0.34375H861.154V4.34375ZM814.43 114.592L817.98 116.434L818.052 116.296L818.113 116.153L814.43 114.592ZM810.666 121.844L814.136 123.834L814.178 123.761L814.216 123.686L810.666 121.844ZM778.904 139.928L778.752 143.925L778.828 143.928H778.904V139.928ZM769.266 139.561L765.266 139.61L765.313 143.413L769.113 143.558L769.266 139.561ZM768.99 117.438L769.648 113.492L764.931 112.706L764.991 117.487L768.99 117.438ZM785.422 115.785L783.457 112.301L783.437 112.312L783.418 112.323L785.422 115.785ZM791.389 108.35L795.049 109.963L795.084 109.883L795.116 109.801L791.389 108.35ZM794.785 99.6289L798.512 101.081L799.151 99.4409L798.374 97.8622L794.785 99.6289ZM747.877 4.34375V0.34375H741.449L744.288 6.11044L747.877 4.34375ZM777.527 4.34375L781.15 2.64817L780.072 0.34375H777.527V4.34375ZM810.819 68.9377L835.145 5.78148L827.679 2.90602L803.353 66.0623L810.819 68.9377ZM831.412 8.34375H861.154V0.34375H831.412V8.34375ZM857.471 2.78289L810.747 113.031L818.113 116.153L864.837 5.90461L857.471 2.78289ZM810.879 112.749L807.116 120.001L814.216 123.686L817.98 116.434L810.879 112.749ZM807.196 119.854C801.017 130.627 791.776 135.928 778.904 135.928V143.928C794.55 143.928 806.485 137.172 814.136 123.834L807.196 119.854ZM779.057 135.931L769.418 135.563L769.113 143.558L778.752 143.925L779.057 135.931ZM773.265 139.511L772.99 117.388L764.991 117.487L765.266 139.61L773.265 139.511ZM768.333 121.383C770.153 121.686 772.825 121.805 776.15 121.805V113.805C772.867 113.805 770.765 113.678 769.648 113.492L768.333 121.383ZM776.15 121.805C780.421 121.805 784.283 121.067 787.426 119.247L783.418 112.323C781.91 113.196 779.59 113.805 776.15 113.805V121.805ZM787.387 119.269C790.793 117.348 793.257 114.028 795.049 109.963L787.728 106.737C786.338 109.893 784.825 111.53 783.457 112.301L787.387 119.269ZM795.116 109.801L798.512 101.081L791.058 98.1772L787.661 106.898L795.116 109.801ZM798.374 97.8622L751.466 2.57706L744.288 6.11044L791.196 101.396L798.374 97.8622ZM747.877 8.34375H777.527V0.34375H747.877V8.34375ZM773.904 6.03933L803.463 69.1956L810.709 65.8044L781.15 2.64817L773.904 6.03933ZM929.234 4.34375L933.005 3.00836L932.061 0.34375H929.234V4.34375ZM963.566 101.281L959.796 102.617L963.577 113.291L967.339 102.61L963.566 101.281ZM997.715 4.34375V0.34375H994.883L993.942 3.01471L997.715 4.34375ZM1033.88 4.34375H1037.88V0.34375H1033.88V4.34375ZM1033.88 138V142H1037.88V138H1033.88ZM1006.25 138H1002.25V142H1006.25V138ZM1006.25 101.465L1002.26 101.29L1002.25 101.378V101.465H1006.25ZM1009.01 38.4004L1013 38.5749L1005.24 37.0382L1009.01 38.4004ZM972.93 138V142H975.735L976.691 139.362L972.93 138ZM954.02 138L950.258 139.36L951.213 142H954.02V138ZM918.035 38.4922L921.797 37.1319L914.039 38.6669L918.035 38.4922ZM920.789 101.465H924.789V101.377L924.785 101.29L920.789 101.465ZM920.789 138V142H924.789V138H920.789ZM893.25 138H889.25V142H893.25V138ZM893.25 4.34375V0.34375H889.25V4.34375H893.25ZM925.464 5.67914L959.796 102.617L967.337 99.9459L933.005 3.00836L925.464 5.67914ZM967.339 102.61L1001.49 5.67279L993.942 3.01471L959.794 99.9522L967.339 102.61ZM997.715 8.34375H1033.88V0.34375H997.715V8.34375ZM1029.88 4.34375V138H1037.88V4.34375H1029.88ZM1033.88 134H1006.25V142H1033.88V134ZM1010.25 138V101.465H1002.25V138H1010.25ZM1010.25 101.639L1013 38.5749L1005.01 38.2259L1002.26 101.29L1010.25 101.639ZM1005.24 37.0382L969.169 136.638L976.691 139.362L1012.77 39.7626L1005.24 37.0382ZM972.93 134H954.02V142H972.93V134ZM957.781 136.64L921.797 37.1319L914.274 39.8525L950.258 139.36L957.781 136.64ZM914.039 38.6669L916.793 101.64L924.785 101.29L922.031 38.3174L914.039 38.6669ZM916.789 101.465V138H924.789V101.465H916.789ZM920.789 134H893.25V142H920.789V134ZM897.25 138V4.34375H889.25V138H897.25ZM893.25 8.34375H929.234V0.34375H893.25V8.34375ZM351.66 259.344H355.66V255.344H351.66V259.344ZM351.66 393V397H355.66V393H351.66ZM324.029 393H320.029V397H324.029V393ZM324.029 281.65H328.029V277.65H324.029V281.65ZM288.412 281.65V277.65H284.595L284.416 281.464L288.412 281.65ZM286.209 328.834L290.202 329.064L290.204 329.042L290.205 329.021L286.209 328.834ZM280.15 366.471L283.935 367.766L283.937 367.758L280.15 366.471ZM266.473 386.574L268.775 389.845L268.787 389.837L268.798 389.829L266.473 386.574ZM241.871 393V397H241.883L241.895 397L241.871 393ZM234.711 393H230.711V397H234.711V393ZM234.711 370.877L234.313 366.897L230.711 367.257V370.877H234.711ZM239.301 370.418L239.699 374.398L239.763 374.392L239.827 374.383L239.301 370.418ZM254.08 358.484L250.395 356.928L250.392 356.936L250.389 356.944L254.08 358.484ZM259.771 320.664L263.768 320.84L263.768 320.827L263.769 320.814L259.771 320.664ZM262.066 259.344V255.344H258.213L258.069 259.194L262.066 259.344ZM347.66 259.344V393H355.66V259.344H347.66ZM351.66 389H324.029V397H351.66V389ZM328.029 393V281.65H320.029V393H328.029ZM324.029 277.65H288.412V285.65H324.029V277.65ZM284.416 281.464L282.213 328.647L290.205 329.021L292.408 281.837L284.416 281.464ZM282.216 328.604C281.307 344.354 279.318 356.493 276.363 365.183L283.937 367.758C287.225 358.089 289.275 345.137 290.202 329.064L282.216 328.604ZM276.366 365.175C273.432 373.746 269.284 379.65 264.148 383.319L268.798 389.829C275.656 384.93 280.626 377.432 283.935 367.766L276.366 365.175ZM264.17 383.304C259.066 386.897 251.764 388.942 241.848 389L241.895 397C252.786 396.936 261.884 394.697 268.775 389.845L264.17 383.304ZM241.871 389H234.711V397H241.871V389ZM238.711 393V370.877H230.711V393H238.711ZM235.109 374.857L239.699 374.398L238.903 366.438L234.313 366.897L235.109 374.857ZM239.827 374.383C248.306 373.258 254.348 368.228 257.771 360.025L250.389 356.944C247.938 362.816 244.126 365.742 238.774 366.453L239.827 374.383ZM257.765 360.041C261.07 352.215 262.972 338.959 263.768 320.84L255.775 320.489C254.98 338.599 253.087 350.555 250.395 356.928L257.765 360.041ZM263.769 320.814L266.064 259.493L258.069 259.194L255.774 320.514L263.769 320.814ZM262.066 263.344H351.66V255.344H262.066V263.344ZM476.012 386.758L473.905 383.358L473.894 383.364L476.012 386.758ZM416.619 386.85L414.529 390.26L416.619 386.85ZM396.424 364.084L392.82 365.819L392.824 365.828L396.424 364.084ZM389.172 329.936H385.172V329.945L385.172 329.955L389.172 329.936ZM396.24 288.627L392.628 286.909L392.623 286.918L396.24 288.627ZM416.344 265.586L418.444 268.99L418.451 268.986L416.344 265.586ZM475.736 265.586L473.618 268.979L473.633 268.988L473.647 268.997L475.736 265.586ZM495.84 288.627L492.219 290.327L492.225 290.34L492.232 290.354L495.84 288.627ZM424.697 291.105L427.973 293.401L427.977 293.395L427.982 293.388L424.697 291.105ZM417.078 322.684L413.078 322.666L413.078 322.675V322.684H417.078ZM467.566 361.422L470.864 363.686L470.869 363.679L470.873 363.673L467.566 361.422ZM475.094 329.66L479.094 329.678L479.094 329.669V329.66H475.094ZM499 329.201C499 341.888 496.759 352.824 492.402 362.11L499.645 365.507C504.59 354.965 507 342.829 507 329.201H499ZM492.402 362.11C488.056 371.374 481.888 378.41 473.905 383.358L478.119 390.158C487.515 384.335 494.689 376.071 499.645 365.507L492.402 362.11ZM473.894 383.364C465.963 388.314 456.798 390.836 446.27 390.836V398.836C458.139 398.836 468.802 395.973 478.13 390.151L473.894 383.364ZM446.27 390.836C435.864 390.836 426.716 388.344 418.709 383.439L414.529 390.26C423.903 396.003 434.522 398.836 446.27 398.836V390.836ZM418.709 383.439C410.72 378.544 404.489 371.558 400.024 362.34L392.824 365.828C397.905 376.316 405.138 384.507 414.529 390.26L418.709 383.439ZM400.028 362.349C395.552 353.053 393.231 342.273 393.172 329.916L385.172 329.955C385.235 343.301 387.749 355.287 392.82 365.819L400.028 362.349ZM393.172 329.936V323.326H385.172V329.936H393.172ZM393.172 323.326C393.172 310.647 395.441 299.683 399.857 290.335L392.623 286.918C387.615 297.521 385.172 309.69 385.172 323.326H393.172ZM399.852 290.345C404.328 280.935 410.534 273.871 418.444 268.99L414.243 262.182C404.896 267.949 397.699 276.246 392.628 286.909L399.852 290.345ZM418.451 268.986C426.452 264.028 435.623 261.508 446.086 261.508V253.508C434.272 253.508 423.616 256.373 414.237 262.186L418.451 268.986ZM446.086 261.508C456.549 261.508 465.685 264.028 473.618 268.979L477.854 262.193C468.53 256.373 457.899 253.508 446.086 253.508V261.508ZM473.647 268.997C481.612 273.877 487.809 280.933 492.219 290.327L499.461 286.927C494.447 276.248 487.241 267.944 477.826 262.175L473.647 268.997ZM492.232 290.354C496.704 299.699 499 310.626 499 323.234H507C507 309.65 504.523 297.505 499.448 286.9L492.232 290.354ZM499 323.234V329.201H507V323.234H499ZM479.094 323.143C479.094 308.754 476.536 297.164 470.86 288.928L464.273 293.467C468.634 299.796 471.094 309.502 471.094 323.143H479.094ZM470.86 288.928C465.051 280.497 456.623 276.273 446.086 276.273V284.273C454.153 284.273 460.046 287.333 464.273 293.467L470.86 288.928ZM446.086 276.273C435.614 276.273 427.222 280.462 421.413 288.823L427.982 293.388C432.209 287.306 438.076 284.273 446.086 284.273V276.273ZM421.422 288.81C415.733 296.926 413.141 308.401 413.078 322.666L421.078 322.701C421.138 309.183 423.625 299.605 427.973 293.401L421.422 288.81ZM413.078 322.684V329.201H421.078V322.684H413.078ZM413.078 329.201C413.078 343.262 415.651 354.742 421.277 363.182L427.934 358.744C423.524 352.129 421.078 342.435 421.078 329.201H413.078ZM421.277 363.182C427.074 371.876 435.575 376.254 446.27 376.254V368.254C438.116 368.254 432.174 365.104 427.934 358.744L421.277 363.182ZM446.27 376.254C456.743 376.254 465.114 372.063 470.864 363.686L464.269 359.158C460.105 365.224 454.278 368.254 446.27 368.254V376.254ZM470.873 363.673C476.469 355.452 479.031 343.943 479.094 329.678L471.094 329.643C471.034 343.161 468.578 352.827 464.26 359.171L470.873 363.673ZM479.094 329.66V323.143H471.094V329.66H479.094ZM618.998 271.277H614.998V275.277H618.998V271.277ZM649.016 278.254L647.086 281.758L647.101 281.766L647.116 281.774L649.016 278.254ZM668.844 297.898L665.345 299.837L668.844 297.898ZM660.49 366.195L657.679 363.35L657.67 363.358L660.49 366.195ZM618.998 381.434V377.434H614.998V381.434H618.998ZM618.998 398.508V402.508H622.998V398.508H618.998ZM592.469 398.508H588.469V402.508H592.469V398.508ZM592.469 381.434H596.469V377.434H592.469V381.434ZM562.084 374.641L560.185 378.161L560.194 378.166L560.204 378.171L562.084 374.641ZM542.256 355.363L538.77 357.326L538.776 357.335L538.781 357.345L542.256 355.363ZM561.809 278.621L563.768 282.108L563.778 282.103L563.788 282.097L561.809 278.621ZM589.898 271.277V267.277H589.875L589.851 267.278L589.898 271.277ZM592.469 271.277V275.277H596.469V271.277H592.469ZM592.469 253.836V249.836H588.469V253.836H592.469ZM618.998 253.836H622.998V249.836H618.998V253.836ZM569.152 302.764L566.201 300.064L566.193 300.072L566.185 300.081L569.152 302.764ZM569.152 350.223L566.214 352.937L566.222 352.945L566.229 352.953L569.152 350.223ZM592.469 358.576V362.576H596.469V358.576H592.469ZM592.469 294.135H596.469V290.135H592.469V294.135ZM618.998 294.135V290.135H614.998V294.135H618.998ZM618.998 358.576H614.998V362.576H618.998V358.576ZM642.039 350.131L639.086 347.432L639.085 347.434L642.039 350.131ZM642.223 302.855L645.235 300.224L642.223 302.855ZM618.998 275.277H620.65V267.277H618.998V275.277ZM620.65 275.277C630.5 275.277 639.282 277.46 647.086 281.758L650.945 274.75C641.859 269.746 631.731 267.277 620.65 267.277V275.277ZM647.116 281.774C654.945 285.998 661.001 291.995 665.345 299.837L672.343 295.96C667.262 286.788 660.099 279.689 650.915 274.734L647.116 281.774ZM665.345 299.837C669.692 307.685 671.912 316.674 671.912 326.906H679.912C679.912 315.475 677.42 305.125 672.343 295.96L665.345 299.837ZM671.912 326.906C671.912 341.999 667.113 354.028 657.679 363.35L663.302 369.041C674.43 358.045 679.912 343.881 679.912 326.906H671.912ZM657.67 363.358C648.353 372.62 635.62 377.434 618.998 377.434V385.434C637.259 385.434 652.188 380.088 663.31 369.032L657.67 363.358ZM614.998 381.434V398.508H622.998V381.434H614.998ZM618.998 394.508H592.469V402.508H618.998V394.508ZM596.469 398.508V381.434H588.469V398.508H596.469ZM592.469 377.434H590.725V385.434H592.469V377.434ZM590.725 377.434C580.727 377.434 571.836 375.301 563.964 371.11L560.204 378.171C569.345 383.038 579.548 385.434 590.725 385.434V377.434ZM563.983 371.12C556.124 366.88 550.066 360.982 545.73 353.381L538.781 357.345C543.871 366.268 551.031 373.222 560.185 378.161L563.983 371.12ZM545.741 353.401C541.466 345.806 539.279 337.072 539.279 327.09H531.279C531.279 338.283 533.744 348.397 538.77 357.326L545.741 353.401ZM539.279 327.09C539.279 316.979 541.469 308.078 545.76 300.287L538.752 296.428C533.741 305.528 531.279 315.782 531.279 327.09H539.279ZM545.76 300.287C550.052 292.493 556.036 286.454 563.768 282.108L559.849 275.134C550.813 280.212 543.762 287.331 538.752 296.428L545.76 300.287ZM563.788 282.097C571.54 277.683 580.231 275.392 589.946 275.277L589.851 267.278C578.881 267.407 568.845 270.012 559.83 275.145L563.788 282.097ZM589.898 275.277H592.469V267.277H589.898V275.277ZM596.469 271.277V253.836H588.469V271.277H596.469ZM592.469 257.836H618.998V249.836H592.469V257.836ZM614.998 253.836V271.277H622.998V253.836H614.998ZM590.725 290.135C580.692 290.135 572.352 293.341 566.201 300.064L572.104 305.464C576.479 300.681 582.52 298.135 590.725 298.135V290.135ZM566.185 300.081C560.116 306.793 557.35 315.985 557.35 327.09H565.35C565.35 317.265 567.785 310.239 572.119 305.446L566.185 300.081ZM557.35 327.09C557.35 337.598 560.156 346.38 566.214 352.937L572.09 347.508C567.745 342.805 565.35 336.165 565.35 327.09H557.35ZM566.229 352.953C572.36 359.517 580.84 362.576 591.092 362.576V354.576C582.494 354.576 576.348 352.067 572.075 347.492L566.229 352.953ZM591.092 362.576H592.469V354.576H591.092V362.576ZM596.469 358.576V294.135H588.469V358.576H596.469ZM592.469 290.135H590.725V298.135H592.469V290.135ZM614.998 294.135V358.576H622.998V294.135H614.998ZM618.998 362.576H620.834V354.576H618.998V362.576ZM620.834 362.576C630.733 362.576 638.957 359.438 644.993 352.828L639.085 347.434C634.839 352.084 628.927 354.576 620.834 354.576V362.576ZM644.992 352.829C651.035 346.218 653.842 337.417 653.842 326.906H645.842C645.842 335.979 643.447 342.661 639.086 347.432L644.992 352.829ZM653.842 326.906C653.842 316.037 651.133 306.975 645.235 300.224L639.21 305.487C643.471 310.364 645.842 317.336 645.842 326.906H653.842ZM645.235 300.224C639.226 293.346 630.728 290.135 620.375 290.135V298.135C628.993 298.135 635.061 300.738 639.21 305.487L645.235 300.224ZM620.375 290.135H618.998V298.135H620.375V290.135ZM812.105 281.65V285.65H816.105V281.65H812.105ZM771.164 281.65V277.65H767.164V281.65H771.164ZM771.164 393V397H775.164V393H771.164ZM743.625 393H739.625V397H743.625V393ZM743.625 281.65H747.625V277.65H743.625V281.65ZM703.234 281.65H699.234V285.65H703.234V281.65ZM703.234 259.344V255.344H699.234V259.344H703.234ZM812.105 259.344H816.105V255.344H812.105V259.344ZM812.105 277.65H771.164V285.65H812.105V277.65ZM767.164 281.65V393H775.164V281.65H767.164ZM771.164 389H743.625V397H771.164V389ZM747.625 393V281.65H739.625V393H747.625ZM743.625 277.65H703.234V285.65H743.625V277.65ZM707.234 281.65V259.344H699.234V281.65H707.234ZM703.234 263.344H812.105V255.344H703.234V263.344ZM808.105 259.344V281.65H816.105V259.344H808.105ZM8.31445 648H4.31445V652H8.31445V648ZM8.31445 514.344V510.344H4.31445V514.344H8.31445ZM92.0332 523.707L89.6445 526.915L89.652 526.921L89.6596 526.927L92.0332 523.707ZM99.5605 568.32L102.87 570.567L102.876 570.558L102.883 570.548L99.5605 568.32ZM85.5156 579.244L84.0695 575.515L72.3236 580.069L84.5455 583.125L85.5156 579.244ZM101.672 589.617L98.4764 592.023L98.4854 592.035L98.4944 592.047L101.672 589.617ZM95.3379 637.902L97.848 641.017L95.3379 637.902ZM60.2715 648V652H60.2876L60.3037 652L60.2715 648ZM35.8535 589.801V585.801H31.8535V589.801H35.8535ZM35.8535 625.877H31.8535V629.877H35.8535V625.877ZM74.5918 621.287L77.1779 624.339L77.1824 624.335L74.5918 621.287ZM61.0977 589.801L61.1556 585.801L61.1266 585.801H61.0977V589.801ZM35.8535 570.34H31.8535V574.34H35.8535V570.34ZM56.2324 570.34V574.34H56.2677L56.3029 574.339L56.2324 570.34ZM71.7461 540.689L69.3019 543.856L69.3326 543.88L69.3639 543.903L71.7461 540.689ZM35.8535 536.65V532.65H31.8535V536.65H35.8535ZM12.3145 648V514.344H4.31445V648H12.3145ZM8.31445 518.344H55.1309V510.344H8.31445V518.344ZM55.1309 518.344C70.9324 518.344 82.2379 521.401 89.6445 526.915L94.4219 520.499C85.0603 513.529 71.7642 510.344 55.1309 510.344V518.344ZM89.6596 526.927C96.856 532.232 100.609 540.027 100.609 550.971H108.609C108.609 537.925 103.979 527.544 94.4068 520.487L89.6596 526.927ZM100.609 550.971C100.609 556.795 99.1253 561.788 96.2386 566.092L102.883 570.548C106.728 564.816 108.609 558.243 108.609 550.971H100.609ZM96.2513 566.073C93.3757 570.308 89.3684 573.46 84.0695 575.515L86.9617 582.974C93.6576 580.377 99.0136 576.246 102.87 570.567L96.2513 566.073ZM84.5455 583.125C90.5917 584.636 95.1589 587.617 98.4764 592.023L104.867 587.211C100.352 581.214 94.1478 577.279 86.4858 575.364L84.5455 583.125ZM98.4944 592.047C101.861 596.45 103.639 601.925 103.639 608.711H111.639C111.639 600.442 109.438 593.188 104.849 587.187L98.4944 592.047ZM103.639 608.711C103.639 620.647 99.8788 629.105 92.8278 634.788L97.848 641.017C107.198 633.481 111.639 622.478 111.639 608.711H103.639ZM92.8278 634.788C85.581 640.629 74.9008 643.882 60.2392 644L60.3037 652C75.9963 651.873 88.6938 648.395 97.848 641.017L92.8278 634.788ZM60.2715 644H8.31445V652H60.2715V644ZM31.8535 589.801V625.877H39.8535V589.801H31.8535ZM35.8535 629.877H59.4453V621.877H35.8535V629.877ZM59.4453 629.877C66.5288 629.877 72.6159 628.205 77.1779 624.339L72.0057 618.236C69.3463 620.489 65.3357 621.877 59.4453 621.877V629.877ZM77.1824 624.335C81.871 620.35 84.0996 614.885 84.0996 608.436H76.0996C76.0996 612.88 74.6563 615.983 72.0012 618.239L77.1824 624.335ZM84.0996 608.436C84.0996 601.659 82.338 595.849 78.1498 591.741C73.9862 587.658 68.0771 585.902 61.1556 585.801L61.0397 593.8C66.7862 593.884 70.3781 595.325 72.5484 597.453C74.6942 599.557 76.0996 602.973 76.0996 608.436H84.0996ZM61.0977 585.801H35.8535V593.801H61.0977V585.801ZM35.8535 574.34H56.2324V566.34H35.8535V574.34ZM56.3029 574.339C63.6644 574.21 69.8996 572.682 74.3546 569.13C78.9886 565.435 81.0703 560.063 81.0703 553.725H73.0703C73.0703 558.219 71.6791 561.031 69.3671 562.875C66.8761 564.861 62.6924 566.225 56.1619 566.34L56.3029 574.339ZM81.0703 553.725C81.0703 546.905 79.0429 541.12 74.1283 537.476L69.3639 543.903C71.5483 545.522 73.0703 548.427 73.0703 553.725H81.0703ZM74.1903 537.523C69.6531 534.021 63.029 532.65 55.1309 532.65V540.65C62.4098 540.65 66.8625 541.973 69.3019 543.856L74.1903 537.523ZM55.1309 532.65H35.8535V540.65H55.1309V532.65ZM31.8535 536.65V570.34H39.8535V536.65H31.8535ZM246.186 514.344L249.956 513.008L249.012 510.344H246.186V514.344ZM280.518 611.281L276.747 612.617L280.528 623.291L284.29 612.61L280.518 611.281ZM314.666 514.344V510.344H311.834L310.893 513.015L314.666 514.344ZM350.834 514.344H354.834V510.344H350.834V514.344ZM350.834 648V652H354.834V648H350.834ZM323.203 648H319.203V652H323.203V648ZM323.203 611.465L319.207 611.29L319.203 611.378V611.465H323.203ZM325.957 548.4L329.953 548.575L322.196 547.038L325.957 548.4ZM289.881 648V652H292.686L293.642 649.362L289.881 648ZM270.971 648L267.209 649.36L268.164 652H270.971V648ZM234.986 548.492L238.748 547.132L230.99 548.667L234.986 548.492ZM237.74 611.465H241.74V611.377L241.736 611.29L237.74 611.465ZM237.74 648V652H241.74V648H237.74ZM210.201 648H206.201V652H210.201V648ZM210.201 514.344V510.344H206.201V514.344H210.201ZM242.415 515.679L276.747 612.617L284.288 609.946L249.956 513.008L242.415 515.679ZM284.29 612.61L318.439 515.673L310.893 513.015L276.745 609.952L284.29 612.61ZM314.666 518.344H350.834V510.344H314.666V518.344ZM346.834 514.344V648H354.834V514.344H346.834ZM350.834 644H323.203V652H350.834V644ZM327.203 648V611.465H319.203V648H327.203ZM327.199 611.639L329.953 548.575L321.961 548.226L319.207 611.29L327.199 611.639ZM322.196 547.038L286.12 646.638L293.642 649.362L329.718 549.763L322.196 547.038ZM289.881 644H270.971V652H289.881V644ZM274.732 646.64L238.748 547.132L231.225 549.852L267.209 649.36L274.732 646.64ZM230.99 548.667L233.744 611.64L241.736 611.29L238.983 548.317L230.99 548.667ZM233.74 611.465V648H241.74V611.465H233.74ZM237.74 644H210.201V652H237.74V644ZM214.201 648V514.344H206.201V648H214.201ZM210.201 518.344H246.186V510.344H210.201V518.344ZM475.186 641.758L473.078 638.358L473.068 638.364L475.186 641.758ZM415.793 641.85L413.703 645.26L415.793 641.85ZM395.598 619.084L391.994 620.819L391.998 620.828L395.598 619.084ZM388.346 584.936H384.346V584.945L384.346 584.955L388.346 584.936ZM395.414 543.627L391.802 541.909L391.797 541.918L395.414 543.627ZM415.518 520.586L417.618 523.99L417.625 523.986L415.518 520.586ZM474.91 520.586L472.792 523.979L472.806 523.988L472.82 523.997L474.91 520.586ZM495.014 543.627L491.393 545.327L491.399 545.34L491.406 545.354L495.014 543.627ZM423.871 546.105L427.147 548.401L427.151 548.395L427.156 548.388L423.871 546.105ZM416.252 577.684L412.252 577.666L412.252 577.675V577.684H416.252ZM466.74 616.422L470.038 618.686L470.042 618.679L470.047 618.673L466.74 616.422ZM474.268 584.66L478.268 584.678L478.268 584.669V584.66H474.268ZM498.174 584.201C498.174 596.888 495.932 607.824 491.576 617.11L498.819 620.507C503.764 609.965 506.174 597.829 506.174 584.201H498.174ZM491.576 617.11C487.23 626.374 481.062 633.41 473.078 638.358L477.293 645.158C486.689 639.335 493.863 631.071 498.819 620.507L491.576 617.11ZM473.068 638.364C465.137 643.314 455.972 645.836 445.443 645.836V653.836C457.313 653.836 467.976 650.973 477.303 645.151L473.068 638.364ZM445.443 645.836C435.038 645.836 425.89 643.344 417.883 638.439L413.703 645.26C423.077 651.003 433.695 653.836 445.443 653.836V645.836ZM417.883 638.439C409.894 633.544 403.663 626.558 399.197 617.34L391.998 620.828C397.079 631.316 404.312 639.507 413.703 645.26L417.883 638.439ZM399.202 617.349C394.726 608.053 392.404 597.273 392.346 584.916L384.346 584.955C384.409 598.301 386.922 610.287 391.994 620.819L399.202 617.349ZM392.346 584.936V578.326H384.346V584.936H392.346ZM392.346 578.326C392.346 565.647 394.615 554.683 399.031 545.335L391.797 541.918C386.789 552.521 384.346 564.69 384.346 578.326H392.346ZM399.026 545.345C403.502 535.935 409.708 528.871 417.618 523.99L413.417 517.182C404.07 522.949 396.873 531.246 391.802 541.909L399.026 545.345ZM417.625 523.986C425.626 519.028 434.797 516.508 445.26 516.508V508.508C433.446 508.508 422.79 511.373 413.411 517.186L417.625 523.986ZM445.26 516.508C455.723 516.508 464.858 519.028 472.792 523.979L477.028 517.193C467.704 511.373 457.073 508.508 445.26 508.508V516.508ZM472.82 523.997C480.785 528.877 486.982 535.933 491.393 545.327L498.634 541.927C493.62 531.248 486.415 522.944 477 517.175L472.82 523.997ZM491.406 545.354C495.878 554.699 498.174 565.626 498.174 578.234H506.174C506.174 564.65 503.696 552.505 498.622 541.9L491.406 545.354ZM498.174 578.234V584.201H506.174V578.234H498.174ZM478.268 578.143C478.268 563.754 475.71 552.164 470.034 543.928L463.446 548.467C467.807 554.796 470.268 564.502 470.268 578.143H478.268ZM470.034 543.928C464.224 535.497 455.797 531.273 445.26 531.273V539.273C453.327 539.273 459.22 542.333 463.446 548.467L470.034 543.928ZM445.26 531.273C434.788 531.273 426.396 535.462 420.586 543.823L427.156 548.388C431.383 542.306 437.25 539.273 445.26 539.273V531.273ZM420.595 543.81C414.907 551.926 412.315 563.401 412.252 577.666L420.252 577.701C420.311 564.183 422.798 554.605 427.147 548.401L420.595 543.81ZM412.252 577.684V584.201H420.252V577.684H412.252ZM412.252 584.201C412.252 598.262 414.825 609.742 420.451 618.182L427.107 613.744C422.698 607.129 420.252 597.435 420.252 584.201H412.252ZM420.451 618.182C426.248 626.876 434.748 631.254 445.443 631.254V623.254C437.289 623.254 431.348 620.104 427.107 613.744L420.451 618.182ZM445.443 631.254C455.916 631.254 464.288 627.063 470.038 618.686L463.442 614.158C459.279 620.224 453.452 623.254 445.443 623.254V631.254ZM470.047 618.673C475.643 610.452 478.205 598.943 478.268 584.678L470.268 584.643C470.208 598.161 467.752 607.827 463.434 614.171L470.047 618.673ZM478.268 584.66V578.143H470.268V584.66H478.268ZM644.609 603.479L648.599 603.767L648.909 599.479H644.609V603.479ZM628.637 637.443L626.029 634.41L626.019 634.419L628.637 637.443ZM550.334 632.578L547.281 635.163L547.288 635.171L547.296 635.18L550.334 632.578ZM542.439 542.893L538.809 541.213L542.439 542.893ZM561.809 520.402L563.917 523.801L563.924 523.797L561.809 520.402ZM628.453 524.9L625.816 527.908L628.453 524.9ZM644.793 559.691V563.691H649.206L648.774 559.3L644.793 559.691ZM617.254 559.691L613.266 560.003L613.554 563.691H617.254V559.691ZM610.002 540.965L607.239 543.857L607.261 543.878L607.283 543.899L610.002 540.965ZM570.529 545.004L567.244 542.722L567.239 542.729L570.529 545.004ZM563.553 575.572L559.553 575.537L559.553 575.555V575.572H563.553ZM570.07 617.34L566.719 619.523L566.726 619.534L566.733 619.544L570.07 617.34ZM609.818 621.562L612.537 624.497L612.539 624.495L609.818 621.562ZM617.07 603.479V599.479H613.36L613.082 603.179L617.07 603.479ZM640.62 603.19C639.645 616.669 634.716 626.941 626.029 634.41L631.245 640.476C641.774 631.422 647.493 619.051 648.599 603.767L640.62 603.19ZM626.019 634.419C617.362 641.91 605.762 645.836 590.816 645.836V653.836C607.204 653.836 620.817 649.5 631.254 640.468L626.019 634.419ZM590.816 645.836C574.678 645.836 562.36 640.472 553.372 629.976L547.296 635.18C558.013 647.695 572.684 653.836 590.816 653.836V645.836ZM553.387 629.994C544.383 619.358 539.646 604.529 539.646 585.027H531.646C531.646 605.794 536.702 622.666 547.281 635.163L553.387 629.994ZM539.646 585.027V576.857H531.646V585.027H539.646ZM539.646 576.857C539.646 564.476 541.827 553.746 546.07 544.572L538.809 541.213C533.995 551.622 531.646 563.535 531.646 576.857H539.646ZM546.07 544.572C550.302 535.421 556.26 528.553 563.917 523.801L559.7 517.003C550.589 522.656 543.634 530.781 538.809 541.213L546.07 544.572ZM563.924 523.797C571.661 518.976 580.702 516.508 591.184 516.508V508.508C579.389 508.508 568.847 511.303 559.693 517.008L563.924 523.797ZM591.184 516.508C605.868 516.508 617.279 520.424 625.816 527.908L631.09 521.893C620.778 512.853 607.343 508.508 591.184 508.508V516.508ZM625.816 527.908C634.331 535.372 639.422 545.95 640.812 560.083L648.774 559.3C647.226 543.568 641.424 530.952 631.09 521.893L625.816 527.908ZM644.793 555.691H617.254V563.691H644.793V555.691ZM621.242 559.38C620.53 550.26 617.925 542.853 612.72 538.031L607.283 543.899C610.402 546.788 612.631 551.865 613.266 560.003L621.242 559.38ZM612.765 538.072C607.626 533.164 600.162 531.09 591.184 531.09V539.09C599.095 539.09 604.177 540.933 607.239 543.857L612.765 538.072ZM591.184 531.09C580.907 531.09 572.695 534.872 567.244 542.722L573.815 547.285C577.543 541.917 583.101 539.09 591.184 539.09V531.09ZM567.239 542.729C562.029 550.263 559.678 561.427 559.553 575.537L567.553 575.608C567.673 562.056 569.973 552.841 573.819 547.279L567.239 542.729ZM559.553 575.572V585.67H567.553V575.572H559.553ZM559.553 585.67C559.553 600.343 561.728 611.861 566.719 619.523L573.422 615.157C569.722 609.477 567.553 599.882 567.553 585.67H559.553ZM566.733 619.544C572.021 627.55 580.327 631.346 590.816 631.346V623.346C582.457 623.346 576.932 620.471 573.408 615.135L566.733 619.544ZM590.816 631.346C599.839 631.346 607.34 629.311 612.537 624.497L607.1 618.628C603.973 621.525 598.807 623.346 590.816 623.346V631.346ZM612.539 624.495C617.76 619.652 620.403 612.505 621.059 603.778L613.082 603.179C612.514 610.731 610.322 615.64 607.098 618.63L612.539 624.495ZM617.07 607.479H644.609V599.479H617.07V607.479ZM723.797 593.381L727.181 591.248L726.004 589.381H723.797V593.381ZM707.916 593.381V589.381H703.916V593.381H707.916ZM707.916 648V652H711.916V648H707.916ZM680.377 648H676.377V652H680.377V648ZM680.377 514.344V510.344H676.377V514.344H680.377ZM707.916 514.344H711.916V510.344H707.916V514.344ZM707.916 567.861H703.916V571.861H707.916V567.861ZM720.492 567.861V571.861H722.736L723.906 569.946L720.492 567.861ZM753.172 514.344V510.344H750.928L749.758 512.259L753.172 514.344ZM786.77 514.344L790.121 516.528L794.151 510.344H786.77V514.344ZM745.553 577.592L742.202 575.408L740.784 577.583L742.194 579.764L745.553 577.592ZM791.084 648V652H798.434L794.443 645.828L791.084 648ZM758.221 648L754.837 650.133L756.014 652H758.221V648ZM723.797 589.381H707.916V597.381H723.797V589.381ZM703.916 593.381V648H711.916V593.381H703.916ZM707.916 644H680.377V652H707.916V644ZM684.377 648V514.344H676.377V648H684.377ZM680.377 518.344H707.916V510.344H680.377V518.344ZM703.916 514.344V567.861H711.916V514.344H703.916ZM707.916 571.861H720.492V563.861H707.916V571.861ZM723.906 569.946L756.586 516.428L749.758 512.259L717.078 565.777L723.906 569.946ZM753.172 518.344H786.77V510.344H753.172V518.344ZM783.418 512.16L742.202 575.408L748.904 579.776L790.121 516.528L783.418 512.16ZM742.194 579.764L787.725 650.172L794.443 645.828L748.912 575.42L742.194 579.764ZM791.084 644H758.221V652H791.084V644ZM761.605 645.867L727.181 591.248L720.413 595.514L754.837 650.133L761.605 645.867ZM819.232 648H815.232V652H819.232V648ZM819.232 514.344V510.344H815.232V514.344H819.232ZM902.951 523.707L900.562 526.915L900.57 526.921L900.578 526.927L902.951 523.707ZM910.479 568.32L913.788 570.567L913.794 570.558L913.8 570.548L910.479 568.32ZM896.434 579.244L894.987 575.515L883.242 580.069L895.463 583.125L896.434 579.244ZM912.59 589.617L909.394 592.023L909.403 592.035L909.412 592.047L912.59 589.617ZM906.256 637.902L908.766 641.017L906.256 637.902ZM871.189 648V652H871.206L871.222 652L871.189 648ZM846.771 589.801V585.801H842.771V589.801H846.771ZM846.771 625.877H842.771V629.877H846.771V625.877ZM885.51 621.287L888.096 624.339L888.1 624.335L885.51 621.287ZM872.016 589.801L872.074 585.801L872.045 585.801H872.016V589.801ZM846.771 570.34H842.771V574.34H846.771V570.34ZM867.15 570.34V574.34H867.186L867.221 574.339L867.15 570.34ZM882.664 540.689L880.22 543.856L880.251 543.88L880.282 543.903L882.664 540.689ZM846.771 536.65V532.65H842.771V536.65H846.771ZM823.232 648V514.344H815.232V648H823.232ZM819.232 518.344H866.049V510.344H819.232V518.344ZM866.049 518.344C881.85 518.344 893.156 521.401 900.562 526.915L905.34 520.499C895.978 513.529 882.682 510.344 866.049 510.344V518.344ZM900.578 526.927C907.774 532.232 911.527 540.027 911.527 550.971H919.527C919.527 537.925 914.897 527.544 905.325 520.487L900.578 526.927ZM911.527 550.971C911.527 556.795 910.043 561.788 907.157 566.092L913.8 570.548C917.646 564.816 919.527 558.243 919.527 550.971H911.527ZM907.169 566.073C904.294 570.308 900.286 573.46 894.987 575.515L897.88 582.974C904.576 580.377 909.932 576.246 913.788 570.567L907.169 566.073ZM895.463 583.125C901.51 584.636 906.077 587.617 909.394 592.023L915.785 587.211C911.27 581.214 905.066 577.279 897.404 575.364L895.463 583.125ZM909.412 592.047C912.779 596.45 914.557 601.925 914.557 608.711H922.557C922.557 600.442 920.356 593.188 915.767 587.187L909.412 592.047ZM914.557 608.711C914.557 620.647 910.797 629.105 903.746 634.788L908.766 641.017C918.116 633.481 922.557 622.478 922.557 608.711H914.557ZM903.746 634.788C896.499 640.629 885.819 643.882 871.157 644L871.222 652C886.914 651.873 899.612 648.395 908.766 641.017L903.746 634.788ZM871.189 644H819.232V652H871.189V644ZM842.771 589.801V625.877H850.771V589.801H842.771ZM846.771 629.877H870.363V621.877H846.771V629.877ZM870.363 629.877C877.447 629.877 883.534 628.205 888.096 624.339L882.924 618.236C880.264 620.489 876.254 621.877 870.363 621.877V629.877ZM888.1 624.335C892.789 620.35 895.018 614.885 895.018 608.436H887.018C887.018 612.88 885.574 615.983 882.919 618.239L888.1 624.335ZM895.018 608.436C895.018 601.659 893.256 595.849 889.068 591.741C884.904 587.658 878.995 585.902 872.074 585.801L871.958 593.8C877.704 593.884 881.296 595.325 883.466 597.453C885.612 599.557 887.018 602.973 887.018 608.436H895.018ZM872.016 585.801H846.771V593.801H872.016V585.801ZM846.771 574.34H867.15V566.34H846.771V574.34ZM867.221 574.339C874.582 574.21 880.818 572.682 885.273 569.13C889.907 565.435 891.988 560.063 891.988 553.725H883.988C883.988 558.219 882.597 561.031 880.285 562.875C877.794 564.861 873.61 566.225 867.08 566.34L867.221 574.339ZM891.988 553.725C891.988 546.905 889.961 541.12 885.046 537.476L880.282 543.903C882.466 545.522 883.988 548.427 883.988 553.725H891.988ZM885.108 537.523C880.571 534.021 873.947 532.65 866.049 532.65V540.65C873.328 540.65 877.78 541.973 880.22 543.856L885.108 537.523ZM866.049 532.65H846.771V540.65H866.049V532.65ZM842.771 536.65V570.34H850.771V536.65H842.771ZM1037.22 590.076V594.076H1041.22V590.076H1037.22ZM984.342 590.076V586.076H980.342V590.076H984.342ZM984.342 625.877H980.342V629.877H984.342V625.877ZM1046.4 625.877H1050.4V621.877H1046.4V625.877ZM1046.4 648V652H1050.4V648H1046.4ZM956.803 648H952.803V652H956.803V648ZM956.803 514.344V510.344H952.803V514.344H956.803ZM1046.21 514.344H1050.21V510.344H1046.21V514.344ZM1046.21 536.65V540.65H1050.21V536.65H1046.21ZM984.342 536.65V532.65H980.342V536.65H984.342ZM984.342 568.504H980.342V572.504H984.342V568.504ZM1037.22 568.504H1041.22V564.504H1037.22V568.504ZM1037.22 586.076H984.342V594.076H1037.22V586.076ZM980.342 590.076V625.877H988.342V590.076H980.342ZM984.342 629.877H1046.4V621.877H984.342V629.877ZM1042.4 625.877V648H1050.4V625.877H1042.4ZM1046.4 644H956.803V652H1046.4V644ZM960.803 648V514.344H952.803V648H960.803ZM956.803 518.344H1046.21V510.344H956.803V518.344ZM1042.21 514.344V536.65H1050.21V514.344H1042.21ZM1046.21 532.65H984.342V540.65H1046.21V532.65ZM980.342 536.65V568.504H988.342V536.65H980.342ZM984.342 572.504H1037.22V564.504H984.342V572.504ZM1033.22 568.504V590.076H1041.22V568.504H1033.22Z" fill="black"/>
</g>
<defs>
<filter id="filter0_d" x="0.314453" y="0.34375" width="1054.08" height="661.492" filterUnits="userSpaceOnUse" color-interpolation-filters="sRGB">
<feFlood flood-opacity="0" result="BackgroundImageFix"/>
<feColorMatrix in="SourceAlpha" type="matrix" values="0 0 0 0 0 0 0 0 0 0 0 0 0 0 0 0 0 0 127 0"/>
<feOffset dy="4"/>
<feGaussianBlur stdDeviation="2"/>
<feColorMatrix type="matrix" values="0 0 0 0 0 0 0 0 0 0 0 0 0 0 0 0 0 0 0.25 0"/>
<feBlend mode="normal" in2="BackgroundImageFix" result="effect1_dropShadow"/>
<feBlend mode="normal" in="SourceGraphic" in2="effect1_dropShadow" result="shape"/>
</filter>
</defs>
</svg>
