<svg width="276" height="55" fill="none" xmlns="http://www.w3.org/2000/svg"><path d="M117.635 53.817h3.192c1.534 0 2.603-.792 3.205-2.376l.206.078-.957 3.096h-9.233v-.222h.285c.948 0 1.421-.4 1.421-1.2V44.2c0-.312-.083-.59-.249-.832-.166-.241-.557-.364-1.172-.364h-.285v-.221h5.296v.221h-.288c-.431 0-.751.07-.96.208-.209.139-.338.292-.387.459-.05.165-.074.342-.074.529v9.617M134.605 54.09c.475 0 .932-.109 1.371-.322.439-.215.833-.54 1.181-.977.347-.438.623-.995.827-1.672.204-.678.307-1.463.307-2.356 0-.982-.11-1.828-.327-2.542-.219-.71-.503-1.28-.852-1.702-.349-.423-.729-.731-1.141-.923a2.875 2.875 0 00-1.222-.288c-.629 0-1.225.192-1.788.577-.564.386-1.02.98-1.371 1.784-.35.803-.526 1.792-.526 2.966 0 .798.083 1.534.252 2.208.166.672.409 1.252.724 1.74s.691.861 1.125 1.118c.436.259.915.388 1.44.388zm-.097.685c-1.053 0-2-.278-2.839-.83a5.607 5.607 0 01-1.96-2.242 6.781 6.781 0 01-.701-3.052c0-.962.171-1.824.512-2.588.341-.764.797-1.402 1.366-1.91a5.9 5.9 0 011.888-1.148 5.939 5.939 0 012.073-.382c1.056 0 2.004.269 2.842.808.84.538 1.492 1.277 1.959 2.217.465.94.699 1.973.699 3.099 0 .888-.151 1.705-.452 2.452a5.618 5.618 0 01-1.264 1.92 5.642 5.642 0 01-1.874 1.229 5.967 5.967 0 01-2.249.427M155.561 42.783l.223 2.632h-.223c-.13-.778-.418-1.276-.86-1.5-.441-.223-.946-.335-1.517-.335h-3.813v4.513h3.114c1.02 0 1.531-.553 1.531-1.658h.223V50.5h-.223c-.023-.616-.145-1.052-.365-1.307-.222-.256-.61-.384-1.166-.384h-3.114v4.384c0 .364.1.655.298.872.199.219.579.328 1.14.328h.288v.222h-5.312v-.222h.284c.584 0 .968-.116 1.148-.348.183-.229.274-.514.274-.852V44.2c0-.339-.091-.621-.275-.85-.183-.231-.564-.346-1.147-.346h-.284v-.221h9.776zM160.363 42.783h10.08l.14 2.678h-.222c-.029-.532-.204-.978-.528-1.34-.322-.36-.86-.541-1.609-.541h-1.881v9.613c0 .8.472 1.2 1.417 1.2h.289v.222h-5.296v-.222h.288c.466 0 .818-.092 1.06-.274.242-.184.362-.491.362-.926V43.58h-1.886c-.749 0-1.285.18-1.605.537-.32.359-.497.807-.532 1.344h-.221l.144-2.678" fill="#231F20"/><path d="M245.868 15.015c-.668-1.492-1.536-2.984-3.139-3.474-1.602-.489-2.16-1.357-2.272-2.872-.156-1.958-.712-3.829-1.513-5.609-.468-1.024-1.18-1.603-2.36-1.581-.823.022-1.624-.2-2.425-.49-.832-.312-1.648-.472-2.444-.472h-.016c-1.244.003-2.446.394-3.596 1.207-.246.179-.423.512-.824.267-1.647-1.023-3.072-.178-4.363.712-1.091.757-1.893 1.581-3.517 1.536-1.603-.044-2.806 1.469-3.808 2.761-1.78 2.293-2.626 4.764-1.112 7.59.512.958.512 2.05.289 3.118-.312 1.513-.512 3.028-.423 4.564.178 2.76 1.335 5.076 3.383 6.923.379.356.847.934 1.537.289 1.335-1.224 2.248-1.29 3.851-.49 1.113.557 1.959 1.426 2.583 2.471.801 1.336 1.936 1.938 3.494 1.759.446-.11 1.603-.244 3.428-.244 4.164-.2 7.102-.824 8.171-6.99.112-.558.289-1.091.757-1.447 1.447-1.114 1.915-2.76 2.138-4.387.177-1.357.556-2.47 1.58-3.405.489-.446.89-1.07.601-1.736z" fill="#ED1C24"/><path d="M237.965 14.701a38.973 38.973 0 00-3.608-4.72 3.65 3.65 0 00-.448-.42c-1.47-1.194-3.71-1.244-5.004-.172a2.78 2.78 0 00-.536.592c-.162.243-.33.458-.508.647-.768.819-1.685 1.133-2.897.935a3.592 3.592 0 00-1.095-.088c-.196.016-.385.049-.564.1a3.018 3.018 0 00-.449.169c-.036.016-.073.03-.109.047a3.935 3.935 0 00-.51.308c-.234.168-.454.36-.665.566l-.027.024c-.293.288-.566.604-.833.922-.913 1.069-.067 6.143 1.091 6.878.022.023.066.067.11.067.75.04 1.332.292 1.827.656.12.09.239.184.351.287.266.245.509.522.74.812.389.485.752 1.006 1.157 1.473.801.934 1.692 1.536 3.028 1.715 1.889.233 3.625-.198 5.357-.712l.742-.223c.16-.05.32-.11.472-.187l.021-.01.013-.007c.26-.132.496-.304.674-.51.969-1.068 1.449-2.437 1.948-3.769.082-.221.166-.442.252-.66.086-.218.177-.434.272-.645.445-1.003-.023-2.873-.802-4.075" fill="#231F20"/><path d="M228.236 14.99c.845-.022 1.671-.243 2.204.713.579 1.069.801 2.16.289 3.294-.6 1.292-1.713 1.448-2.938.446-1.002-.846-1.224-2.226-2.182-3.139-.4-.379.2-.935.712-1.068.624-.156 1.27-.179 1.915-.245zm0 0c.845-.022 1.671-.243 2.204.713.579 1.069.801 2.16.289 3.294-.6 1.292-1.713 1.448-2.938.446-1.002-.846-1.224-2.226-2.182-3.139-.4-.379.2-.935.712-1.068.624-.156 1.27-.179 1.915-.245z" fill="#fff"/><path d="M57.989 4.399v24.318c1.232.382 3.015.574 5.348.574 2.566 0 4.677-.638 6.335-1.91 1.658-1.272 2.86-2.924 3.608-4.957.748-2.032 1.122-4.21 1.122-6.536 0-2.477-.521-4.621-1.563-6.435-1.042-1.813-2.473-3.192-4.293-4.136-1.821-.944-3.866-1.416-6.138-1.416-1.65 0-3.125.166-4.419.498zM49.35 2.325h12.708c3.34 0 6.15.436 8.433 1.31 2.282.872 4.064 2.008 5.346 3.409 1.28 1.4 2.188 2.9 2.72 4.5.531 1.601.796 3.215.796 4.84 0 2.22-.401 4.23-1.204 6.027-.804 1.797-1.926 3.322-3.367 4.572s-3.12 2.204-5.037 2.861c-1.917.656-3.953.984-6.11.984H49.35v-.535h.686c2.282 0 3.422-.962 3.422-2.888V5.74c0-.75-.2-1.418-.6-2.003-.4-.584-1.341-.876-2.822-.876h-.686v-.535M106.211 29.563a7.441 7.441 0 003.303-.775c1.057-.516 2.005-1.3 2.843-2.353.839-1.055 1.503-2.398 1.995-4.03.491-1.632.737-3.522.737-5.673 0-2.364-.264-4.404-.789-6.12-.525-1.716-1.208-3.084-2.05-4.104-.843-1.019-1.758-1.76-2.75-2.223-.992-.462-1.972-.694-2.942-.694-1.513 0-2.95.465-4.307 1.393-1.358.93-2.459 2.361-3.303 4.296-.845 1.935-1.267 4.316-1.267 7.141 0 1.927.2 3.699.605 5.319.404 1.619.985 3.017 1.746 4.192.76 1.176 1.663 2.075 2.711 2.697 1.048.622 2.204.934 3.468.934zm-.234 1.65c-2.538 0-4.818-.666-6.84-1.998-2.022-1.332-3.595-3.132-4.721-5.402-1.124-2.27-1.687-4.722-1.687-7.353 0-2.313.411-4.39 1.233-6.232.821-1.843 1.919-3.375 3.29-4.601a14.235 14.235 0 014.548-2.763c1.66-.615 3.325-.923 4.993-.923 2.543 0 4.826.648 6.849 1.946 2.022 1.297 3.593 3.078 4.715 5.341 1.123 2.264 1.684 4.753 1.684 7.465 0 2.139-.363 4.108-1.088 5.906-.725 1.797-1.742 3.34-3.047 4.628a13.617 13.617 0 01-4.51 2.96c-1.7.684-3.507 1.026-5.419 1.026M141.819 4.127v11.601c.386.025.977.037 1.77.037 1.738 0 3.167-.286 4.292-.862 1.124-.576 1.944-1.331 2.459-2.266a6.14 6.14 0 00.773-3.014 6.38 6.38 0 00-.674-2.876c-.45-.903-1.158-1.636-2.123-2.199-.964-.563-2.156-.844-3.573-.844a10.1 10.1 0 00-2.924.423zm-8.677-1.802h12.982c2.551 0 4.795.444 6.733 1.332 1.939.888 2.908 2.851 2.908 5.89 0 1.382-.32 2.597-.958 3.644a7.342 7.342 0 01-2.499 2.504 9.763 9.763 0 01-3.352 1.262l7.809 10.026c.9 1.144 1.702 1.97 2.403 2.48.7.51 1.617.786 2.749.83v.535h-7.806l-9.828-13.45h-2.464v10.027c0 1.926 1.14 2.888 3.42 2.888h.693v.535h-12.79v-.535h.686c1.356 0 2.272-.262 2.748-.788.475-.524.712-1.225.712-2.1V5.701c0-.812-.231-1.489-.695-2.03-.461-.54-1.384-.811-2.765-.811h-.686v-.535M179.588 2.325l17.708 20.822V5.739c0-1.919-1.137-2.879-3.413-2.879h-.695v-.535h10.063v.535h-.731c-2.276 0-3.415.96-3.415 2.879v25.474h-.544L178.547 7.972v19.433c0 1.044.29 1.787.872 2.227.582.441 1.433.661 2.552.661h.693v.535h-10.073v-.535h.73c2.278 0 3.416-.962 3.416-2.888V5.777c-.781-.962-1.605-1.69-2.477-2.181-.871-.49-1.875-.736-3.011-.736v-.535h8.339M273.716 1.941v9.182h-.544a7.885 7.885 0 00-1.073-3.738 7.777 7.777 0 00-2.67-2.766c-1.106-.684-2.292-1.028-3.554-1.028-.882 0-1.672.182-2.374.545-.7.361-1.246.847-1.641 1.453-.393.607-.589 1.247-.589 1.923 0 .781.222 1.513.669 2.195a7.784 7.784 0 001.736 1.857 21.265 21.265 0 002.476 1.65c.941.543 1.821 1.051 2.64 1.52 1.507.894 2.749 1.793 3.728 2.695.979.904 1.716 1.896 2.213 2.974.498 1.078.746 2.288.746 3.625 0 1.557-.442 2.877-1.327 3.959-.884 1.081-2.025 1.889-3.423 2.424a11.985 11.985 0 01-4.318.802c-.882 0-1.604-.076-2.171-.226a27.598 27.598 0 01-2.105-.67c-.838-.297-1.484-.473-1.942-.53h-.653c-.768.137-1.227.613-1.376 1.426h-.543l.047-9.641h.533c.344 2.17 1.178 4.024 2.503 5.565 1.324 1.542 3.049 2.312 5.175 2.312 1.542 0 2.837-.373 3.885-1.12 1.045-.748 1.569-1.796 1.569-3.148 0-1.13-.306-2.144-.918-3.037a9.016 9.016 0 00-2.25-2.284c-.886-.63-2.033-1.34-3.44-2.135-1.505-.85-2.75-1.642-3.734-2.377a9.67 9.67 0 01-2.442-2.65c-.644-1.031-.965-2.21-.965-3.535 0-1.419.372-2.679 1.116-3.78.743-1.1 1.747-1.95 3.013-2.547 1.266-.597 2.642-.895 4.128-.895.988 0 1.8.084 2.438.252.637.17 1.316.394 2.034.671.719.279 1.238.419 1.556.419.324 0 .619-.132.88-.395.263-.263.432-.579.507-.947h.46M37.279 29.777c-.444-.249-.82-.618-1.13-1.106-.31-.487-.69-1.242-1.14-2.26L24.14 1.94h-.384l-6.683 15.095c.8-.112 1.663-.14 2.196-.147l3.37-7.765 6.701 15.448c-1.149-1.783-2.968-3.745-5.835-5.172-3.348-1.508-6.702-.884-10.036.236-3.278 1.103-6.576 2.132-10.104 1.47-1.065-.2-2.108-.518-3.364-.833 2.582 2.438 5.256 4.308 8.646 4.702l.005.006s.858.135 1.586.099c.004 0 .01-.003.015-.004.795-.015 2.008-.133 3.504-.55l-.834 1.885c-.556 1.276-1.113 2.216-1.67 2.822-.557.607-1.228.96-2.017 1.06v.535h8.142v-.535c-.75 0-1.424-.145-2.022-.437-.596-.29-.895-.75-.895-1.375 0-.2.019-.378.056-.534.038-.158.107-.354.211-.588.104-.235.168-.386.192-.455l1.433-3.3c.355-.136 1.055-.399 1.6-.543L18 23.05c.052-.013.099-.022.146-.034.724-.16 1.616-.299 2.646-.334l.042-.002.039-.003c.007 0 .01.003.018.003 2.195-.098 4.276.532 6.216 1.865 1.035.71 1.897 1.57 2.669 2.512.556.752 1.178 1.923.244 2.521-.022.014-.036.028-.057.042l-.014.008c-.48.288-1.2.51-2.161.666v.535h11.415v-.535c-.839-.093-1.48-.265-1.924-.516" fill="#231F20"/></svg>