<svg width="1623" height="683" viewBox="0 0 1623 683" fill="none" xmlns="http://www.w3.org/2000/svg">
<path d="M79.1211 2.35352H195.52L191.848 76.3418C191.786 77.8105 191.725 80.1361 191.664 83.3184C191.603 86.5007 191.511 90.2031 191.389 94.4258C191.266 98.6484 191.083 104.279 190.838 111.316C190.654 118.354 190.471 126.188 190.287 134.816L157.699 135.734C139.707 136.53 128.294 136.928 123.459 136.928L124.377 125.729C124.622 122.24 125.387 109.389 126.672 87.1738C128.018 64.8978 128.844 52.0156 129.15 48.5273H80.1309L74.2559 134.816L10.916 136.561C10.916 126.035 11.1914 113.214 11.7422 98.0977L13.6699 46.3242C14.3431 34.1458 15.2611 22.3958 16.4238 11.0742L16.791 5.56641L17.8926 4.28125C21.0137 3.91406 30.4688 3.51628 46.2578 3.08789C62.0469 2.59831 73.0013 2.35352 79.1211 2.35352ZM349.889 94.5176L316.291 93.9668L314.363 134.174C287.13 135.275 269.995 135.826 262.957 135.826C255.919 135.826 251.941 135.704 251.023 135.459C251.207 133.256 251.36 129.982 251.482 125.637L251.758 110.215C252.064 101.647 252.921 65.9076 254.328 2.99609C286.212 1.16016 318.831 0.242188 352.184 0.242188C375.378 0.242188 393.217 3.48568 405.701 9.97266C421.857 18.418 429.905 31.3613 429.844 48.8027C429.844 79.2793 403.192 94.5176 349.889 94.5176ZM364.301 48.1602C364.301 42.4688 362.312 39.0417 358.334 37.8789C354.417 36.7161 349.001 36.1348 342.086 36.1348C335.232 36.1348 327.429 36.5938 318.678 37.5117C317.821 47.1198 317.393 55.4733 317.393 62.5723C318.372 62.9395 324.798 63.123 336.67 63.123C355.09 63.123 364.301 58.1354 364.301 48.1602ZM634.426 135.826H575.951L471.027 135.092L472.588 102.779C475.709 37.9707 477.27 4.74023 477.27 3.08789C484.613 2.7819 489.417 2.62891 491.682 2.62891H584.58C605.204 2.62891 621.88 2.50651 634.609 2.26172L630.846 36.8691C616.036 38.2155 586.538 38.8887 542.354 38.8887C542.17 40.3574 541.956 42.8359 541.711 46.3242C541.527 49.8125 541.374 52.444 541.252 54.2188C558.877 53.9128 571.178 53.7598 578.154 53.7598L598.35 54.3105C598.35 57.0033 597.921 61.6543 597.064 68.2637C596.269 74.873 595.382 79.9831 594.402 83.5938C593.423 83.8385 585.804 83.9609 571.545 83.9609H540.059L539.049 101.861L635.436 102.963C635.436 114.529 635.252 122.791 634.885 127.748C634.579 132.644 634.426 135.337 634.426 135.826ZM895.555 134.725L838.457 135.826C836.132 112.51 834.724 96.3841 834.234 87.4492L833.408 72.9453L795.404 133.072C779.738 133.072 770.772 133.011 768.508 132.889C756.268 108.654 747.18 89.9277 741.244 76.709L734.543 135.367C728.362 135.551 719.427 135.643 707.738 135.643C696.111 135.643 684.452 135.306 672.764 134.633L673.957 119.119C674.936 109.021 677.17 70.3444 680.658 3.08789H681.117C708.105 3.08789 730.993 2.7819 749.781 2.16992L753.086 9.23828L782.645 63.4902L818.812 1.52734L886.1 1.34375C886.528 7.83073 888.456 34.6354 891.883 81.7578L894.912 123.434L895.555 134.725ZM1129.97 7.31055C1129.97 8.41211 1129.54 22.3958 1128.69 49.2617C1127.89 76.1276 1127.31 100.515 1126.94 122.424L1126.3 136.652C1105 136.652 1086.09 136.102 1069.57 135V134.633C1069.63 134.449 1069.66 134.143 1069.66 133.715C1069.66 133.225 1069.69 131.451 1069.75 128.391C1069.87 125.331 1070.06 119.058 1070.3 109.572C1070.55 100.025 1070.82 89.4382 1071.13 77.8105L1005.04 136.377L937.014 134.816L938.023 114.07L941.512 2.16992C946.897 2.16992 952.13 2.23112 957.209 2.35352L998.885 3.36328L997.875 17.5918L995.764 57.9824C1002.68 50.3939 1013.24 39.623 1027.43 25.6699C1041.63 11.7168 1049.04 4.40365 1049.65 3.73047L1129.97 7.31055ZM1190.06 135L1221.73 85.2461L1162.98 5.10742L1163.35 2.44531L1212.74 2.16992L1229.26 1.80273L1255.88 40.7246L1278.83 2.35352L1341.9 2.07812L1342.91 3.91406C1303.62 65.1732 1275.83 108.685 1259.55 134.449L1244.68 134.725L1190.06 135ZM1594.67 134.725L1537.57 135.826C1535.25 112.51 1533.84 96.3841 1533.35 87.4492L1532.53 72.9453L1494.52 133.072C1478.85 133.072 1469.89 133.011 1467.62 132.889C1455.39 108.654 1446.3 89.9277 1440.36 76.709L1433.66 135.367C1427.48 135.551 1418.54 135.643 1406.86 135.643C1395.23 135.643 1383.57 135.306 1371.88 134.633L1373.07 119.119C1374.05 109.021 1376.29 70.3444 1379.78 3.08789H1380.23C1407.22 3.08789 1430.11 2.7819 1448.9 2.16992L1452.2 9.23828L1481.76 63.4902L1517.93 1.52734L1585.22 1.34375C1585.65 7.83073 1587.57 34.6354 1591 81.7578L1594.03 123.434L1594.67 134.725ZM517.631 269.262L514.051 350.318C513.928 353.501 513.837 357.203 513.775 361.426C513.714 365.648 513.561 371.279 513.316 378.316C513.133 385.354 512.949 393.188 512.766 401.816L472.283 402C459.493 403.04 450.833 403.561 446.305 403.561L446.855 392.729C448.569 360.294 450.16 334.56 451.629 315.527H398.57C397.469 342.883 396.306 359.498 395.082 365.373C393.858 371.187 392.634 375.257 391.41 377.582C385.229 389.516 376.661 398.542 365.707 404.662C354.814 410.782 340.983 414.607 324.215 416.137C323.48 414.79 321.369 410.078 317.881 402C314.393 393.922 311.486 387.282 309.16 382.08C317.789 380.428 324.123 376.572 328.162 370.514C332.262 364.455 334.527 355.612 334.955 343.984L336.148 313.324C336.822 301.146 337.74 289.396 338.902 278.074L339.27 272.566L340.371 271.281C343.553 270.914 353.039 270.486 368.828 269.996C384.678 269.507 395.602 269.262 401.6 269.262H517.631ZM670.256 368.861C681.027 368.861 689.258 365.954 694.949 360.141C700.702 354.327 703.578 345.729 703.578 334.346C703.578 322.902 700.671 315.007 694.857 310.662C689.044 306.317 681.027 304.145 670.807 304.145C660.587 304.145 652.478 306.99 646.48 312.682C640.544 318.312 637.576 326.512 637.576 337.283C637.576 358.335 648.469 368.861 670.256 368.861ZM564.047 338.752C564.047 315.374 573.502 297.413 592.412 284.867C611.383 272.322 637.637 266.049 671.174 266.049C704.71 266.049 730.628 271.863 748.926 283.49C767.224 295.118 776.373 311.58 776.373 332.877C776.373 355.949 766.673 373.941 747.273 386.854C727.874 399.705 701.375 406.131 667.777 406.131C634.18 406.131 608.477 400.164 590.668 388.23C572.921 376.236 564.047 359.743 564.047 338.752ZM912.016 305.705C905.161 307.602 899.868 311.213 896.135 316.537C892.463 321.861 890.627 328.777 890.627 337.283C890.627 354.174 897.542 364.271 911.373 367.576L912.016 305.705ZM936.801 366.658C950.02 362.313 956.629 351.389 956.629 333.887C956.629 318.465 950.326 309.071 937.719 305.705L936.801 366.658ZM910.73 421.369L910.914 405.764C880.743 404.601 857.243 397.9 840.414 385.66C824.87 374.339 817.098 358.519 817.098 338.201C817.098 317.822 826.094 301.36 844.086 288.814C862.078 276.269 884.936 268.833 912.658 266.508V253.105L938.453 252.922L938.178 266.508C983.77 269.201 1012.44 282.97 1024.19 307.816C1027.74 315.283 1029.49 323.116 1029.42 331.316C1029.49 352.98 1021.93 369.932 1006.75 382.172C990.227 395.513 966.757 403.285 936.342 405.488V421.553L910.73 421.369ZM1177.28 401.633C1177.28 401.633 1156.35 402.214 1114.49 403.377L1116.41 340.588C1116.9 325.411 1117.36 313.722 1117.79 305.521H1067.67C1067.79 302.951 1068.25 297.474 1069.05 289.09C1069.84 280.706 1070.58 274.372 1071.25 270.088C1127.98 269.354 1167.39 268.986 1189.48 268.986C1211.64 268.986 1226.78 269.078 1234.92 269.262C1233.03 285.54 1230.85 297.627 1228.41 305.521H1180.58L1180.03 325.35C1178.13 369.84 1177.18 393.677 1177.18 396.859C1177.18 399.98 1177.21 401.572 1177.28 401.633ZM72.7871 618.637L69.7578 647.645C87.3828 647.645 98.9492 647.124 104.457 646.084C110.026 645.044 114.34 644.034 117.4 643.055C123.643 641.035 126.733 637.945 126.672 633.783C126.672 627.786 122.51 623.777 114.188 621.758C105.926 619.677 92.1257 618.637 72.7871 618.637ZM86.4648 597.432C110.638 597.432 122.725 592.475 122.725 582.561C122.725 573.932 110.424 569.617 85.8223 569.617H78.4785L74.9902 597.432H86.4648ZM81.7832 675.367L0.634766 674.908C7.30534 597.37 11.1914 552.604 12.293 540.609L100.51 540.242C136.005 540.242 160.392 545.322 173.672 555.48C180.465 560.682 183.861 567.077 183.861 574.666C183.861 579.929 180.985 585.161 175.232 590.363C169.541 595.565 162.87 599.084 155.221 600.92C164.768 602.45 172.54 605.387 178.537 609.732C184.535 614.016 187.533 619.34 187.533 625.705C187.533 632.07 186.554 637.73 184.596 642.688C180.251 653.458 170.031 661.598 153.936 667.105C137.84 672.613 113.79 675.367 81.7832 675.367ZM515.824 674.725L458.727 675.826C456.401 652.51 454.993 636.384 454.504 627.449L453.678 612.945L415.674 673.072C400.007 673.072 391.042 673.011 388.777 672.889C376.538 648.654 367.45 629.928 361.514 616.709L354.812 675.367C348.632 675.551 339.697 675.643 328.008 675.643C316.38 675.643 304.722 675.306 293.033 674.633L294.227 659.119C295.206 649.021 297.439 610.344 300.928 543.088H301.387C328.375 543.088 351.263 542.782 370.051 542.17L373.355 549.238L402.914 603.49L439.082 541.527L506.369 541.344C506.798 547.831 508.725 574.635 512.152 621.758L515.182 663.434L515.824 674.725ZM662.758 641.861C673.529 641.861 681.76 638.954 687.451 633.141C693.204 627.327 696.08 618.729 696.08 607.346C696.08 595.902 693.173 588.007 687.359 583.662C681.546 579.317 673.529 577.145 663.309 577.145C653.089 577.145 644.98 579.99 638.982 585.682C633.046 591.312 630.078 599.512 630.078 610.283C630.078 631.335 640.971 641.861 662.758 641.861ZM556.549 611.752C556.549 588.374 566.004 570.413 584.914 557.867C603.885 545.322 630.139 539.049 663.676 539.049C697.212 539.049 723.13 544.863 741.428 556.49C759.726 568.118 768.875 584.58 768.875 605.877C768.875 628.949 759.175 646.941 739.775 659.854C720.376 672.705 693.877 679.131 660.279 679.131C626.682 679.131 600.979 673.164 583.17 661.23C565.423 649.236 556.549 632.743 556.549 611.752ZM810.242 610.375C810.242 588.833 818.749 572.157 835.762 560.346C856.141 546.148 884.659 539.049 921.316 539.049C927.681 539.049 933.587 539.355 939.033 539.967V583.479C931.016 582.377 922.326 581.826 912.963 581.826C903.661 581.826 895.98 584.06 889.922 588.527C883.924 592.995 880.926 600.094 880.926 609.824C880.926 630.387 891.911 640.668 913.881 640.668C919.45 640.668 927.834 639.597 939.033 637.455V677.754C930.71 678.672 922.204 679.131 913.514 679.131C868.533 679.131 837.781 668.36 821.258 646.818C813.914 637.271 810.242 625.124 810.242 610.375ZM1173.17 560.438V560.162C1173.17 560.162 1173.3 560.254 1173.54 560.438H1173.17ZM1054.21 541.895H1063.11C1063.84 546.484 1064.21 551.717 1064.21 557.592C1064.21 563.467 1063.97 570.352 1063.48 578.246C1062.99 586.141 1062.71 591.128 1062.65 593.209L1100.75 545.107L1106.71 538.131C1128.01 545.781 1150.16 553.186 1173.17 560.346V560.988C1165.83 568.822 1156.93 577.971 1146.46 588.436C1136 598.9 1129.08 605.846 1125.71 609.273L1185.93 656.457L1134.99 677.479L1125.26 682.436L1109.38 669.4C1101.42 662.73 1092.36 654.805 1082.2 645.625C1072.11 636.445 1065.25 629.958 1061.64 626.164L1060.17 668.023V674.449C1028.35 675.428 1005.8 675.918 992.518 675.918C992.15 670.655 991.967 666.463 991.967 663.342C991.967 663.342 992.579 643.085 993.803 602.572C995.088 575.094 995.73 559.152 995.73 554.746C995.73 550.34 995.914 546.729 996.281 543.914C999.035 543.547 1007.51 543.118 1021.71 542.629C1035.91 542.139 1046.74 541.895 1054.21 541.895ZM1295.51 618.637L1292.48 647.645C1310.1 647.645 1321.67 647.124 1327.18 646.084C1332.74 645.044 1337.06 644.034 1340.12 643.055C1346.36 641.035 1349.45 637.945 1349.39 633.783C1349.39 627.786 1345.23 623.777 1336.91 621.758C1328.64 619.677 1314.84 618.637 1295.51 618.637ZM1309.18 597.432C1333.36 597.432 1345.44 592.475 1345.44 582.561C1345.44 573.932 1333.14 569.617 1308.54 569.617H1301.2L1297.71 597.432H1309.18ZM1304.5 675.367L1223.35 674.908C1230.02 597.37 1233.91 552.604 1235.01 540.609L1323.23 540.242C1358.72 540.242 1383.11 545.322 1396.39 555.48C1403.18 560.682 1406.58 567.077 1406.58 574.666C1406.58 579.929 1403.7 585.161 1397.95 590.363C1392.26 595.565 1385.59 599.084 1377.94 600.92C1387.49 602.45 1395.26 605.387 1401.26 609.732C1407.25 614.016 1410.25 619.34 1410.25 625.705C1410.25 632.07 1409.27 637.73 1407.31 642.688C1402.97 653.458 1392.75 661.598 1376.65 667.105C1360.56 672.613 1336.51 675.367 1304.5 675.367ZM1621.17 675.826H1562.69L1457.77 675.092L1459.33 642.779C1462.45 577.971 1464.01 544.74 1464.01 543.088C1471.36 542.782 1476.16 542.629 1478.42 542.629H1571.32C1591.95 542.629 1608.62 542.507 1621.35 542.262L1617.59 576.869C1602.78 578.215 1573.28 578.889 1529.1 578.889C1528.91 580.357 1528.7 582.836 1528.45 586.324C1528.27 589.812 1528.12 592.444 1527.99 594.219C1545.62 593.913 1557.92 593.76 1564.9 593.76L1585.09 594.311C1585.09 597.003 1584.66 601.654 1583.81 608.264C1583.01 614.873 1582.12 619.983 1581.14 623.594C1580.17 623.839 1572.55 623.961 1558.29 623.961H1526.8L1525.79 641.861L1622.18 642.963C1622.18 654.529 1621.99 662.791 1621.63 667.748C1621.32 672.644 1621.17 675.337 1621.17 675.826Z" fill="black"/>
</svg>
